999
dxfrw 0.6.3
  0
SECTION
  2
HEADER
  9
$ACADVER
  1
AC1021
  9
$DWGCODEPAGE
  3
ANSI_1252
  9
$INSBASE
 10
0
 20
0
 30
0
  9
$EXTMIN
 10
0
 20
-3e-006
 30
0
  9
$EXTMAX
 10
283.474304
 20
173.480312
 30
0
  9
$LIMMIN
 10
0
 20
0
  9
$LIMMAX
 10
420
 20
297
  9
$ORTHOMODE
 70
    0
  9
$REGENMODE
 70
    1
  9
$FILLMODE
 70
    1
  9
$QTEXTMODE
 70
    0
  9
$MIRRTEXT
 70
    0
  9
$LTSCALE
 40
1
  9
$ATTMODE
 70
    0
  9
$TEXTSIZE
 40
2.5
  9
$TRACEWID
 40
15.68
  9
$TEXTSTYLE
  7
STANDARD
  9
$CLAYER
  8
0
  9
$CELTYPE
  6
BYLAYER
  9
$CECOLOR
 62
  256
  9
$CELTSCALE
 40
1
  9
$DISPSILH
 70
    0
  9
$DIMSCALE
 40
2.5
  9
$DIMASZ
 40
2.5
  9
$DIMEXO
 40
0.625
  9
$DIMDLI
 40
3.75
  9
$DIMRND
 40
0
  9
$DIMDLE
 40
0
  9
$DIMEXE
 40
1.25
  9
$DIMTP
 40
0
  9
$DIMTM
 40
0
  9
$DIMTXT
 40
2.5
  9
$DIMCEN
 40
2.5
  9
$DIMTSZ
 40
0
  9
$DIMTOL
 70
    0
  9
$DIMLIM
 70
    0
  9
$DIMTIH
 70
    0
  9
$DIMTOH
 70
    0
  9
$DIMSE1
 70
    0
  9
$DIMSE2
 70
    0
  9
$DIMTAD
 70
    1
  9
$DIMZIN
 70
    8
  9
$DIMBLK
  1

  9
$DIMASO
 70
    1
  9
$DIMSHO
 70
    1
  9
$DIMPOST
  1

  9
$DIMAPOST
  1

  9
$DIMALT
 70
    0
  9
$DIMALTD
 70
    3
  9
$DIMALTF
 40
0.03937
  9
$DIMLFAC
 40
1
  9
$DIMTOFL
 70
    1
  9
$DIMTVP
 40
0
  9
$DIMTIX
 70
    0
  9
$DIMSOXD
 70
    0
  9
$DIMSAH
 70
    0
  9
$DIMBLK1
  1

  9
$DIMBLK2
  1

  9
$DIMSTYLE
  2
Standard
  9
$DIMCLRD
 70
    0
  9
$DIMCLRE
 70
    0
  9
$DIMCLRT
 70
    0
  9
$DIMTFAC
 40
1
  9
$DIMGAP
 40
0.625
  9
$DIMJUST
 70
    0
  9
$DIMSD1
 70
    0
  9
$DIMSD2
 70
    0
  9
$DIMTOLJ
 70
    0
  9
$DIMTZIN
 70
    8
  9
$DIMALTZ
 70
    0
  9
$DIMALTTZ
 70
    0
  9
$DIMUPT
 70
    0
  9
$DIMDEC
 70
    2
  9
$DIMTDEC
 70
    2
  9
$DIMALTU
 70
    2
  9
$DIMALTTD
 70
    3
  9
$DIMTXSTY
  7
STANDARD
  9
$DIMAUNIT
 70
    0
  9
$DIMADEC
 70
    0
  9
$DIMALTRND
 40
0
  9
$DIMAZIN
 70
    0
  9
$DIMDSEP
 70
   44
  9
$DIMATFIT
 70
    3
  9
$DIMFRAC
 70
    0
  9
$DIMLDRBLK
  1
STANDARD
  9
$DIMLUNIT
 70
    2
  9
$DIMLWD
 70
   -2
  9
$DIMLWE
 70
   -2
  9
$DIMTMOVE
 70
    0
  9
$DIMFXL
 40
1
  9
$DIMFXLON
 70
    0
  9
$DIMJOGANG
 40
0.7854
  9
$DIMTFILL
 70
    0
  9
$DIMTFILLCLR
 70
    0
  9
$DIMARCSYM
 70
    0
  9
$DIMLTYPE
  6

  9
$DIMLTEX1
  6

  9
$DIMLTEX2
  6

  9
$LUNITS
 70
    2
  9
$LUPREC
 70
    4
  9
$SKETCHINC
 40
1
  9
$FILLETRAD
 40
0
  9
$AUNITS
 70
    0
  9
$AUPREC
 70
    2
  9
$MENU
  1
.
  9
$ELEVATION
 40
0
  9
$PELEVATION
 40
0
  9
$THICKNESS
 40
0
  9
$LIMCHECK
 70
    0
  9
$CHAMFERA
 40
0
  9
$CHAMFERB
 40
0
  9
$CHAMFERC
 40
0
  9
$CHAMFERD
 40
0
  9
$SKPOLY
 70
    0
  9
$USRTIMER
 70
    1
  9
$ANGBASE
 50
0
  9
$ANGDIR
 70
    0
  9
$PDMODE
 70
   34
  9
$PDSIZE
 40
0
  9
$PLINEWID
 40
0
  9
$SPLFRAME
 70
    0
  9
$SPLINETYPE
 70
    2
  9
$SPLINESEGS
 70
    8
  9
$HANDSEED
  5
20000
  9
$SURFTAB1
 70
    6
  9
$SURFTAB2
 70
    6
  9
$SURFTYPE
 70
    6
  9
$SURFU
 70
    6
  9
$SURFV
 70
    6
  9
$UCSBASE
  2

  9
$UCSNAME
  2

  9
$UCSORG
 10
0
 20
0
 30
0
  9
$UCSXDIR
 10
1
 20
0
 30
0
  9
$UCSYDIR
 10
0
 20
1
 30
0
  9
$UCSORTHOREF
  2

  9
$UCSORTHOVIEW
 70
    0
  9
$UCSORGTOP
 10
0
 20
0
 30
0
  9
$UCSORGBOTTOM
 10
0
 20
0
 30
0
  9
$UCSORGLEFT
 10
0
 20
0
 30
0
  9
$UCSORGRIGHT
 10
0
 20
0
 30
0
  9
$UCSORGFRONT
 10
0
 20
0
 30
0
  9
$UCSORGBACK
 10
0
 20
0
 30
0
  9
$PUCSBASE
  2

  9
$PUCSNAME
  2

  9
$PUCSORG
 10
0
 20
0
 30
0
  9
$PUCSXDIR
 10
1
 20
0
 30
0
  9
$PUCSYDIR
 10
0
 20
1
 30
0
  9
$PUCSORTHOREF
  2

  9
$PUCSORTHOVIEW
 70
    0
  9
$PUCSORGTOP
 10
0
 20
0
 30
0
  9
$PUCSORGBOTTOM
 10
0
 20
0
 30
0
  9
$PUCSORGLEFT
 10
0
 20
0
 30
0
  9
$PUCSORGRIGHT
 10
0
 20
0
 30
0
  9
$PUCSORGFRONT
 10
0
 20
0
 30
0
  9
$PUCSORGBACK
 10
0
 20
0
 30
0
  9
$USERI1
 70
    0
  9
$USERI2
 70
    0
  9
$USERI3
 70
    0
  9
$USERI4
 70
    0
  9
$USERI5
 70
    0
  9
$USERR1
 40
0
  9
$USERR2
 40
0
  9
$USERR3
 40
0
  9
$USERR4
 40
0
  9
$USERR5
 40
0
  9
$WORLDVIEW
 70
    1
  9
$SHADEDGE
 70
    3
  9
$SHADEDIF
 70
   70
  9
$TILEMODE
 70
    1
  9
$MAXACTVP
 70
   64
  9
$PINSBASE
 10
0
 20
0
 30
0
  9
$PLIMCHECK
 70
    0
  9
$PEXTMIN
 10
0
 20
0
 30
0
  9
$PEXTMAX
 10
0
 20
0
 30
0
  9
$GRIDMODE
 70
    0
  9
$SNAPSTYLE
 70
    0
  9
$PLIMMIN
 10
0
 20
0
  9
$PLIMMAX
 10
210
 20
297
  9
$UNITMODE
 70
    0
  9
$VISRETAIN
 70
    1
  9
$PLINEGEN
 70
    0
  9
$PSLTSCALE
 70
    1
  9
$TREEDEPTH
 70
 3020
  9
$CMLSTYLE
  2
Standard
  9
$CMLJUST
 70
    0
  9
$CMLSCALE
 40
20
  9
$PROXYGRAPHICS
 70
    1
  9
$MEASUREMENT
 70
    1
  9
$CELWEIGHT
370
   -1
  9
$ENDCAPS
280
    0
  9
$JOINSTYLE
280
    0
  9
$LWDISPLAY
290
    0
  9
$INSUNITS
 70
    4
  9
$HYPERLINKBASE
  1

  9
$STYLESHEET
  1

  9
$XEDIT
290
    1
  9
$CEPSNTYPE
380
    0
  9
$PSTYLEMODE
290
    1
  9
$EXTNAMES
290
    1
  9
$PSVPSCALE
 40
1
  9
$OLESTARTUP
290
    0
  9
$SORTENTS
280
  127
  9
$INDEXCTL
280
    0
  9
$HIDETEXT
280
    1
  9
$XCLIPFRAME
290
    0
  9
$HALOGAP
280
    0
  9
$OBSCOLOR
 70
  257
  9
$OBSLTYPE
280
    0
  9
$INTERSECTIONDISPLAY
280
    0
  9
$INTERSECTIONCOLOR
 70
  257
  9
$DIMASSOC
280
    1
  9
$PROJECTNAME
  1

  9
$CAMERADISPLAY
290
    0
  9
$LENSLENGTH
 40
50
  9
$CAMERAHEIGHT
 40
0
  9
$STEPSPERSEC
 40
2
  9
$STEPSIZE
 40
50
  9
$3DDWFPREC
 40
2
  9
$PSOLWIDTH
 40
5
  9
$PSOLHEIGHT
 40
80
  9
$LOFTANG1
 40
1.570796326794897
  9
$LOFTANG2
 40
1.570796326794897
  9
$LOFTMAG1
 40
0
  9
$LOFTMAG2
 40
0
  9
$LOFTPARAM
 70
    7
  9
$LOFTNORMALS
280
    1
  9
$LATITUDE
 40
1
  9
$LONGITUDE
 40
1
  9
$NORTHDIRECTION
 40
0
  9
$TIMEZONE
 70
-8000
  9
$LIGHTGLYPHDISPLAY
280
    1
  9
$TILEMODELIGHTSYNCH
280
    1
  9
$SOLIDHIST
280
    1
  9
$SHOWHIST
280
    1
  9
$DWFFRAME
280
    2
  9
$DGNFRAME
280
    0
  9
$REALWORLDSCALE
290
    1
  9
$INTERFERECOLOR
 62
    1
  9
$CSHADOW
280
    0
  9
$SHADOWPLANELOCATION
 40
0
  0
ENDSEC
  0
SECTION
  2
CLASSES
  0
ENDSEC
  0
SECTION
  2
TABLES
  0
TABLE
  2
VPORT
  5
8
330
0
100
AcDbSymbolTable
 70
    1
  0
VPORT
  5
31
330
2
100
AcDbSymbolTableRecord
100
AcDbViewportTableRecord
  2
*ACTIVE
 70
    0
 10
0
 20
0
 11
1
 21
1
 12
229.0666832872817
 22
121.1118399118323
 13
0
 23
0
 14
10
 24
10
 15
10
 25
10
 16
0
 26
0
 36
1
 17
0
 27
0
 37
0
 40
299.9120492524204
 41
1.784026996625422
 42
50
 43
0
 44
0
 50
0
 51
0
 71
    0
 72
  100
 73
    1
 74
    3
 75
    0
 76
    0
 77
    0
 78
    0
281
    0
 65
    1
110
0
120
0
130
0
111
1
121
0
131
0
112
0
122
1
132
0
 79
    0
146
0
348
10020
 60
    7
 61
    5
292
1
282
    1
141
0
142
0
 63
  250
421
3358443
  0
ENDTAB
  0
TABLE
  2
LTYPE
  5
5
330
0
100
AcDbSymbolTable
 70
    4
  0
LTYPE
  5
14
330
5
100
AcDbSymbolTableRecord
100
AcDbLinetypeTableRecord
  2
ByBlock
 70
    0
  3

 72
   65
 73
    0
 40
0
  0
LTYPE
  5
15
330
5
100
AcDbSymbolTableRecord
100
AcDbLinetypeTableRecord
  2
ByLayer
 70
    0
  3

 72
   65
 73
    0
 40
0
  0
LTYPE
  5
16
330
5
100
AcDbSymbolTableRecord
100
AcDbLinetypeTableRecord
  2
Continuous
 70
    0
  3
Solid line
 72
   65
 73
    0
 40
0
  0
LTYPE
  5
32
330
5
100
AcDbSymbolTableRecord
100
AcDbLinetypeTableRecord
  2
DOT
 70
    0
  3
Dot . . . . . . . . . . . . . . . . . . . . . .
 72
   65
 73
    2
 40
6.35
 49
0
 74
    0
 49
-6.35
 74
    0
  0
LTYPE
  5
33
330
5
100
AcDbSymbolTableRecord
100
AcDbLinetypeTableRecord
  2
DOTTINY
 70
    0
  3
Dot (.15x) .....................................
 72
   65
 73
    2
 40
0.9525
 49
0
 74
    0
 49
-0.9525
 74
    0
  0
LTYPE
  5
34
330
5
100
AcDbSymbolTableRecord
100
AcDbLinetypeTableRecord
  2
DOT2
 70
    0
  3
Dot (.5x) .....................................
 72
   65
 73
    2
 40
3.175
 49
0
 74
    0
 49
-3.175
 74
    0
  0
LTYPE
  5
35
330
5
100
AcDbSymbolTableRecord
100
AcDbLinetypeTableRecord
  2
DOTX2
 70
    0
  3
Dot (2x) .  .  .  .  .  .  .  .  .  .  .  .  .
 72
   65
 73
    2
 40
12.7
 49
0
 74
    0
 49
-12.7
 74
    0
  0
LTYPE
  5
36
330
5
100
AcDbSymbolTableRecord
100
AcDbLinetypeTableRecord
  2
DASHED
 70
    0
  3
Dashed _ _ _ _ _ _ _ _ _ _ _ _ _ _ _ _ _
 72
   65
 73
    2
 40
19.05
 49
12.7
 74
    0
 49
-6.35
 74
    0
  0
LTYPE
  5
37
330
5
100
AcDbSymbolTableRecord
100
AcDbLinetypeTableRecord
  2
DASHEDTINY
 70
    0
  3
Dashed (.15x) _ _ _ _ _ _ _ _ _ _ _ _ _ _ _ _ _
 72
   65
 73
    2
 40
2.8575
 49
1.905
 74
    0
 49
-0.9525
 74
    0
  0
LTYPE
  5
38
330
5
100
AcDbSymbolTableRecord
100
AcDbLinetypeTableRecord
  2
DASHED2
 70
    0
  3
Dashed (.5x) _ _ _ _ _ _ _ _ _ _ _ _ _ _ _ _ _
 72
   65
 73
    2
 40
9.524999999999999
 49
6.35
 74
    0
 49
-3.175
 74
    0
  0
LTYPE
  5
39
330
5
100
AcDbSymbolTableRecord
100
AcDbLinetypeTableRecord
  2
DASHEDX2
 70
    0
  3
Dashed (2x) ____  ____  ____  ____  ____  ___
 72
   65
 73
    2
 40
38.09999999999999
 49
25.4
 74
    0
 49
-12.7
 74
    0
  0
LTYPE
  5
3A
330
5
100
AcDbSymbolTableRecord
100
AcDbLinetypeTableRecord
  2
DASHDOT
 70
    0
  3
Dash dot __ . __ . __ . __ . __ . __ . __ . __
 72
   65
 73
    4
 40
25.4
 49
12.7
 74
    0
 49
-6.35
 74
    0
 49
0
 74
    0
 49
-6.35
 74
    0
  0
LTYPE
  5
3B
330
5
100
AcDbSymbolTableRecord
100
AcDbLinetypeTableRecord
  2
DASHDOTTINY
 70
    0
  3
Dash dot (.15x) _._._._._._._._._._._._._._._.
 72
   65
 73
    4
 40
3.81
 49
1.905
 74
    0
 49
-0.9525
 74
    0
 49
0
 74
    0
 49
-0.9525
 74
    0
  0
LTYPE
  5
3C
330
5
100
AcDbSymbolTableRecord
100
AcDbLinetypeTableRecord
  2
DASHDOT2
 70
    0
  3
Dash dot (.5x) _._._._._._._._._._._._._._._.
 72
   65
 73
    4
 40
12.7
 49
6.35
 74
    0
 49
-3.175
 74
    0
 49
0
 74
    0
 49
-3.175
 74
    0
  0
LTYPE
  5
3D
330
5
100
AcDbSymbolTableRecord
100
AcDbLinetypeTableRecord
  2
DASHDOTX2
 70
    0
  3
Dash dot (2x) ____  .  ____  .  ____  .  ___
 72
   65
 73
    4
 40
50.8
 49
25.4
 74
    0
 49
-12.7
 74
    0
 49
0
 74
    0
 49
-12.7
 74
    0
  0
LTYPE
  5
3E
330
5
100
AcDbSymbolTableRecord
100
AcDbLinetypeTableRecord
  2
DIVIDE
 70
    0
  3
Divide ____ . . ____ . . ____ . . ____ . . ____
 72
   65
 73
    6
 40
31.75
 49
12.7
 74
    0
 49
-6.35
 74
    0
 49
0
 74
    0
 49
-6.35
 74
    0
 49
0
 74
    0
 49
-6.35
 74
    0
  0
LTYPE
  5
3F
330
5
100
AcDbSymbolTableRecord
100
AcDbLinetypeTableRecord
  2
DIVIDETINY
 70
    0
  3
Divide (.15x) __..__..__..__..__..__..__..__.._
 72
   65
 73
    6
 40
4.7625
 49
1.905
 74
    0
 49
-0.9525
 74
    0
 49
0
 74
    0
 49
-0.9525
 74
    0
 49
0
 74
    0
 49
-0.9525
 74
    0
  0
LTYPE
  5
40
330
5
100
AcDbSymbolTableRecord
100
AcDbLinetypeTableRecord
  2
DIVIDE2
 70
    0
  3
Divide (.5x) __..__..__..__..__..__..__..__.._
 72
   65
 73
    6
 40
15.875
 49
6.35
 74
    0
 49
-3.175
 74
    0
 49
0
 74
    0
 49
-3.175
 74
    0
 49
0
 74
    0
 49
-3.175
 74
    0
  0
LTYPE
  5
41
330
5
100
AcDbSymbolTableRecord
100
AcDbLinetypeTableRecord
  2
DIVIDEX2
 70
    0
  3
Divide (2x) ________  .  .  ________  .  .  _
 72
   65
 73
    6
 40
63.5
 49
25.4
 74
    0
 49
-12.7
 74
    0
 49
0
 74
    0
 49
-12.7
 74
    0
 49
0
 74
    0
 49
-12.7
 74
    0
  0
LTYPE
  5
42
330
5
100
AcDbSymbolTableRecord
100
AcDbLinetypeTableRecord
  2
BORDER
 70
    0
  3
Border __ __ . __ __ . __ __ . __ __ . __ __ .
 72
   65
 73
    6
 40
44.45
 49
12.7
 74
    0
 49
-6.35
 74
    0
 49
12.7
 74
    0
 49
-6.35
 74
    0
 49
0
 74
    0
 49
-6.35
 74
    0
  0
LTYPE
  5
43
330
5
100
AcDbSymbolTableRecord
100
AcDbLinetypeTableRecord
  2
BORDERTINY
 70
    0
  3
Border (.15x) __.__.__.__.__.__.__.__.__.__.__.
 72
   65
 73
    6
 40
6.6675
 49
1.905
 74
    0
 49
-0.9525
 74
    0
 49
1.905
 74
    0
 49
-0.9525
 74
    0
 49
0
 74
    0
 49
-0.9525
 74
    0
  0
LTYPE
  5
44
330
5
100
AcDbSymbolTableRecord
100
AcDbLinetypeTableRecord
  2
BORDER2
 70
    0
  3
Border (.5x) __.__.__.__.__.__.__.__.__.__.__.
 72
   65
 73
    6
 40
22.225
 49
6.35
 74
    0
 49
-3.175
 74
    0
 49
6.35
 74
    0
 49
-3.175
 74
    0
 49
0
 74
    0
 49
-3.175
 74
    0
  0
LTYPE
  5
45
330
5
100
AcDbSymbolTableRecord
100
AcDbLinetypeTableRecord
  2
BORDERX2
 70
    0
  3
Border (2x) ____  ____  .  ____  ____  .  ___
 72
   65
 73
    6
 40
88.89999999999999
 49
25.4
 74
    0
 49
-12.7
 74
    0
 49
25.4
 74
    0
 49
-12.7
 74
    0
 49
0
 74
    0
 49
-12.7
 74
    0
  0
LTYPE
  5
46
330
5
100
AcDbSymbolTableRecord
100
AcDbLinetypeTableRecord
  2
CENTER
 70
    0
  3
Center ____ _ ____ _ ____ _ ____ _ ____ _ ____
 72
   65
 73
    4
 40
50.8
 49
31.75
 74
    0
 49
-6.35
 74
    0
 49
6.35
 74
    0
 49
-6.35
 74
    0
  0
LTYPE
  5
47
330
5
100
AcDbSymbolTableRecord
100
AcDbLinetypeTableRecord
  2
CENTERTINY
 70
    0
  3
Center (.15x) ___ _ ___ _ ___ _ ___ _ ___ _ ___
 72
   65
 73
    4
 40
7.62
 49
4.7625
 74
    0
 49
-0.9525
 74
    0
 49
0.9525
 74
    0
 49
-0.9525
 74
    0
  0
LTYPE
  5
48
330
5
100
AcDbSymbolTableRecord
100
AcDbLinetypeTableRecord
  2
CENTER2
 70
    0
  3
Center (.5x) ___ _ ___ _ ___ _ ___ _ ___ _ ___
 72
   65
 73
    4
 40
28.575
 49
19.05
 74
    0
 49
-3.175
 74
    0
 49
3.175
 74
    0
 49
-3.175
 74
    0
  0
LTYPE
  5
49
330
5
100
AcDbSymbolTableRecord
100
AcDbLinetypeTableRecord
  2
CENTERX2
 70
    0
  3
Center (2x) ________  __  ________  __  _____
 72
   65
 73
    4
 40
101.6
 49
63.5
 74
    0
 49
-12.7
 74
    0
 49
12.7
 74
    0
 49
-12.7
 74
    0
  0
ENDTAB
  0
TABLE
  2
LAYER
  5
2
330
0
100
AcDbSymbolTable
 70
    1
  0
LAYER
  5
10
330
2
100
AcDbSymbolTableRecord
100
AcDbLayerTableRecord
  2
0
 70
    0
 62
    7
  6
CONTINUOUS
370
   -3
390
F
  0
LAYER
  5
4A
330
2
100
AcDbSymbolTableRecord
100
AcDbLayerTableRecord
  2
Layer_1
 70
    0
 62
    7
  6
CONTINUOUS
370
   -3
390
F
  0
ENDTAB
  0
TABLE
  2
STYLE
  5
3
330
0
100
AcDbSymbolTable
 70
    3
  0
STYLE
  5
4B
330
2
100
AcDbSymbolTableRecord
100
AcDbTextStyleTableRecord
  2
Standard
 70
    0
 40
0
 41
1
 50
0
 71
    0
 42
1
  3
txt
  4

  0
ENDTAB
  0
TABLE
  2
VIEW
  5
6
330
0
100
AcDbSymbolTable
 70
    0
  0
ENDTAB
  0
TABLE
  2
UCS
  5
7
330
0
100
AcDbSymbolTable
 70
    0
  0
ENDTAB
  0
TABLE
  2
APPID
  5
9
330
0
100
AcDbSymbolTable
 70
    1
  0
APPID
  5
12
330
9
100
AcDbSymbolTableRecord
100
AcDbRegAppTableRecord
  2
ACAD
 70
    0
  0
APPID
  5
4C
330
9
100
AcDbSymbolTableRecord
100
AcDbRegAppTableRecord
  2
LibreCad
 70
    0
  0
ENDTAB
  0
TABLE
  2
DIMSTYLE
  5
A
330
0
100
AcDbSymbolTable
 70
    1
100
AcDbDimStyleTable
 71
    1
  0
DIMSTYLE
105
4D
330
A
100
AcDbSymbolTableRecord
100
AcDbDimStyleTableRecord
  2
Standard
 70
    0
 40
1
 41
2.5
 42
0.625
 43
0.38
 44
1.25
 45
0
 46
0
 47
0
 48
0
 49
1
140
2.5
141
0.09
142
2.5
143
25.4
144
1
145
0
146
1
147
0.625
148
0
 71
    0
 72
    0
 73
    0
 74
    1
 75
    0
 76
    0
 77
    0
 78
    1
 79
    0
170
    0
171
    2
172
    0
173
    0
174
    0
175
    0
176
    0
177
    0
178
    0
179
    0
271
    2
272
    4
273
    2
274
    2
275
    0
276
    0
277
    2
278
    0
279
    0
280
    0
281
    0
282
    0
283
    1
284
    0
285
    0
286
    0
288
    0
289
    3
340
standard
341

371
   -2
372
   -2
  0
ENDTAB
  0
TABLE
  2
BLOCK_RECORD
  5
1
330
0
100
AcDbSymbolTable
 70
    2
  0
BLOCK_RECORD
  5
1F
330
1
100
AcDbSymbolTableRecord
100
AcDbBlockTableRecord
  2
*Model_Space
 70
    0
280
    1
281
    0
  0
BLOCK_RECORD
  5
1E
330
1
100
AcDbSymbolTableRecord
100
AcDbBlockTableRecord
  2
*Paper_Space
 70
    0
280
    1
281
    0
  0
ENDTAB
  0
ENDSEC
  0
SECTION
  2
BLOCKS
  0
BLOCK
  5
20
330
1F
100
AcDbEntity
  8
0
100
AcDbBlockBegin
  2
*Model_Space
 70
    0
 10
0
 20
0
 30
0
  3
*Model_Space
  1

  0
ENDBLK
  5
21
330
1F
100
AcDbEntity
  8
0
100
AcDbBlockEnd
  0
BLOCK
  5
1C
330
1B
100
AcDbEntity
  8
0
100
AcDbBlockBegin
  2
*Paper_Space
 70
    0
 10
0
 20
0
 30
0
  3
*Paper_Space
  1

  0
ENDBLK
  5
1D
330
1F
100
AcDbEntity
  8
0
100
AcDbBlockEnd
  0
ENDSEC
  0
SECTION
  2
ENTITIES
  0
LWPOLYLINE
  5
4E
100
AcDbEntity
  8
Layer_1
  6
ByLayer
 62
    7
370
   -1
100
AcDbPolyline
 90
    2
 70
    0
 43
0
 10
38.086169
 20
3.887714
 10
38.086169
 20
3.527742
  0
LWPOLYLINE
  5
4F
100
AcDbEntity
  8
Layer_1
  6
ByLayer
 62
    7
370
   -1
100
AcDbPolyline
 90
    3
 70
    0
 43
0
 10
38.566145
 20
4.127695
 10
38.206162
 20
4.127695
 10
38.086172
 20
3.8876
  0
LWPOLYLINE
  5
50
100
AcDbEntity
  8
Layer_1
  6
ByLayer
 62
    7
370
   -1
100
AcDbPolyline
 90
    2
 70
    0
 43
0
 10
39.286111
 20
4.127695
 10
38.566145
 20
4.127695
  0
LWPOLYLINE
  5
51
100
AcDbEntity
  8
Layer_1
  6
ByLayer
 62
    7
370
   -1
100
AcDbPolyline
 90
    2
 70
    0
 43
0
 10
39.406105
 20
4.727648
 10
39.286114
 20
4.127695
  0
LWPOLYLINE
  5
52
100
AcDbEntity
  8
Layer_1
  6
ByLayer
 62
    7
370
   -1
100
AcDbPolyline
 90
    2
 70
    0
 43
0
 10
39.406105
 20
4.727648
 10
39.646086
 20
6.887506
  0
LWPOLYLINE
  5
53
100
AcDbEntity
  8
Layer_1
  6
ByLayer
 62
    7
370
   -1
100
AcDbPolyline
 90
   17
 70
    0
 43
0
 10
261.275457
 20
26.92624
 10
247.476118
 20
23.206476
 10
233.67678
 20
19.726693
 10
219.997432
 20
16.486892
 10
206.198101
 20
13.847071
 10
192.278769
 20
11.327241
 10
178.479434
 20
9.167355000000001
 10
164.680095
 20
7.487487
 10
150.880759
 20
6.047572
 10
137.081421
 20
4.847638
 10
123.042095
 20
4.127695
 10
109.24276
 20
3.8876
 10
95.32342800000001
 20
3.767695
 10
81.404096
 20
4.007789
 10
67.484764
 20
4.607742
 10
53.565432
 20
5.567666
 10
39.646103
 20
6.887591
  0
LWPOLYLINE
  5
54
100
AcDbEntity
  8
Layer_1
  6
ByLayer
 62
    7
370
   -1
100
AcDbPolyline
 90
    2
 70
    0
 43
0
 10
261.275457
 20
26.92624
 10
261.875428
 20
24.886369
  0
LWPOLYLINE
  5
55
100
AcDbEntity
  8
Layer_1
  6
ByLayer
 62
    7
370
   -1
100
AcDbPolyline
 90
    2
 70
    0
 43
0
 10
261.995422
 20
24.166415
 10
261.875428
 20
24.886369
  0
LWPOLYLINE
  5
56
100
AcDbEntity
  8
Layer_1
  6
ByLayer
 62
    7
370
   -1
100
AcDbPolyline
 90
   41
 70
    0
 43
0
 10
38.086176
 20
3.527725
 10
34.486349
 20
4.127687
 10
30.886522
 20
4.967634
 10
27.406689
 20
6.167557
 10
24.166845
 20
7.607466
 10
20.927
 20
9.287359
 10
17.927144
 20
11.32723
 10
15.047283
 20
13.607085
 10
12.287415
 20
16.126925
 10
9.887530999999999
 20
18.88675
 10
7.727634
 20
21.766567
 10
5.807727
 20
24.766377
 10
4.127807
 20
28.006171
 10
2.807871
 20
31.365958
 10
1.727923
 20
34.845737
 10
1.007957
 20
38.445508
 10
0.407986
 20
42.04528
 10
0.287992
 20
45.765044
 10
0.287992
 20
127.839834
 10
0.407986
 20
131.439605
 10
1.007957
 20
135.039377
 10
1.727923
 20
138.639148
 10
2.807871
 20
142.118927
 10
4.127807
 20
145.598706
 10
5.807727
 20
148.718508
 10
7.727634
 20
151.718318
 10
9.887530999999999
 20
154.718128
 10
12.287415
 20
157.477952
 10
15.047283
 20
159.997792
 10
17.927144
 20
162.157655
 10
20.927
 20
164.077533
 10
24.166845
 20
165.877419
 10
27.406689
 20
167.317328
 10
30.886522
 20
168.397259
 10
34.486349
 20
169.357198
 10
38.086176
 20
169.837168
 10
38.086176
 20
169.597183
 10
38.206171
 20
169.477191
 10
38.566153
 20
169.357198
 10
39.286119
 20
169.477191
 10
39.406113
 20
168.757236
  0
LWPOLYLINE
  5
57
100
AcDbEntity
  8
Layer_1
  6
ByLayer
 62
    7
370
   -1
100
AcDbPolyline
 90
    2
 70
    0
 43
0
 10
38.086176
 20
4.847641
 10
39.406113
 20
4.727649
  0
LWPOLYLINE
  5
58
100
AcDbEntity
  8
Layer_1
  6
ByLayer
 62
    7
370
   -1
100
AcDbPolyline
 90
   17
 70
    0
 43
0
 10
38.086176
 20
4.847641
 10
34.366355
 20
5.447603
 10
30.766528
 20
6.407542
 10
27.286695
 20
7.607466
 10
23.806862
 20
9.167367
 10
20.567018
 20
11.087245
 10
17.567099
 20
13.247147
 10
14.687237
 20
15.526996
 10
12.047366
 20
18.286835
 10
9.647481000000001
 20
21.166637
 10
7.60758
 20
24.286448
 10
5.687671
 20
27.526249
 10
4.247739
 20
30.886041
 10
3.16779
 20
34.485814
 10
2.207837
 20
38.085588
 10
1.727861
 20
41.925342
 10
1.48788
 20
45.645106
  0
LWPOLYLINE
  5
59
100
AcDbEntity
  8
Layer_1
  6
ByLayer
 62
    7
370
   -1
100
AcDbPolyline
 90
    2
 70
    0
 43
0
 10
1.487871
 20
127.839881
 10
1.487871
 20
45.645106
  0
LWPOLYLINE
  5
5A
100
AcDbEntity
  8
Layer_1
  6
ByLayer
 62
    7
370
   -1
100
AcDbPolyline
 90
   17
 70
    0
 43
0
 10
1.487871
 20
127.839881
 10
1.727853
 20
131.559644
 10
2.207829
 20
135.279408
 10
3.167782
 20
138.879181
 10
4.247731
 20
142.478955
 10
5.687663
 20
145.958737
 10
7.607568
 20
149.318529
 10
9.64747
 20
152.318322
 10
12.047355
 20
155.198151
 10
14.687229
 20
157.957963
 10
17.56709
 20
160.35783
 10
20.566947
 20
162.517689
 10
23.806791
 20
164.437566
 10
27.286625
 20
165.877452
 10
30.766456
 20
167.197377
 10
34.366283
 20
168.037339
 10
38.086106
 20
168.637292
  0
LWPOLYLINE
  5
5B
100
AcDbEntity
  8
Layer_1
  6
ByLayer
 62
    7
370
   -1
100
AcDbPolyline
 90
    2
 70
    0
 43
0
 10
39.406051
 20
168.757282
 10
38.086115
 20
168.637377
  0
LWPOLYLINE
  5
5C
100
AcDbEntity
  8
Layer_1
  6
ByLayer
 62
    7
370
   -1
100
AcDbPolyline
 90
    2
 70
    0
 43
0
 10
39.64604
 20
166.597424
 10
39.406059
 20
168.757282
  0
LWPOLYLINE
  5
5D
100
AcDbEntity
  8
Layer_1
  6
ByLayer
 62
    7
370
   -1
100
AcDbPolyline
 90
   17
 70
    0
 43
0
 10
39.64604
 20
166.597424
 10
53.565372
 20
167.917348
 10
67.48470399999999
 20
168.877273
 10
81.404033
 20
169.477254
 10
95.323365
 20
169.717348
 10
109.242697
 20
169.717348
 10
123.042036
 20
169.357348
 10
137.081361
 20
168.637405
 10
150.880697
 20
167.437471
 10
164.680036
 20
165.997585
 10
178.479371
 20
164.317689
 10
192.27871
 20
162.277821
 10
206.198042
 20
159.757963
 10
219.997375
 20
156.878161
 10
233.676723
 20
153.87834
 10
247.476061
 20
150.398558
 10
261.2754
 20
146.558803
  0
LWPOLYLINE
  5
5E
100
AcDbEntity
  8
Layer_1
  6
ByLayer
 62
    7
370
   -1
100
AcDbPolyline
 90
    2
 70
    0
 43
0
 10
261.875353
 20
148.718548
 10
261.275372
 20
146.55869
  0
LWPOLYLINE
  5
5F
100
AcDbEntity
  8
Layer_1
  6
ByLayer
 62
    7
370
   -1
100
AcDbPolyline
 90
   14
 70
    0
 43
0
 10
261.875353
 20
148.718548
 10
262.835306
 20
148.478454
 10
265.595173
 20
147.398511
 10
268.23505
 20
146.078614
 10
270.634918
 20
144.6387
 10
272.794833
 20
142.958803
 10
274.95472
 20
140.918936
 10
276.874625
 20
138.759077
 10
278.434559
 20
136.35921
 10
279.754483
 20
133.719389
 10
280.714436
 20
131.199559
 10
281.554398
 20
128.319729
 10
282.034389
 20
125.559918
 10
282.154294
 20
122.680089
  0
LWPOLYLINE
  5
60
100
AcDbEntity
  8
Layer_1
  6
ByLayer
 62
    7
370
   -1
100
AcDbPolyline
 90
    2
 70
    0
 43
0
 10
282.15438
 20
50.924747
 10
282.15438
 20
122.680202
  0
LWPOLYLINE
  5
61
100
AcDbEntity
  8
Layer_1
  6
ByLayer
 62
    7
370
   -1
100
AcDbPolyline
 90
   14
 70
    0
 43
0
 10
282.15438
 20
50.924747
 10
282.034474
 20
48.044917
 10
281.554483
 20
45.165115
 10
280.714521
 20
42.405276
 10
279.754569
 20
39.765455
 10
278.434644
 20
37.125635
 10
276.87471
 20
34.845758
 10
274.954805
 20
32.565909
 10
272.794918
 20
30.646032
 10
270.635032
 20
28.726155
 10
268.235135
 20
27.28624
 10
265.595258
 20
26.086334
 10
262.835391
 20
25.126381
 10
261.875438
 20
24.886287
  0
LWPOLYLINE
  5
62
100
AcDbEntity
  8
Layer_1
  6
ByLayer
 62
    7
370
   -1
100
AcDbPolyline
 90
   19
 70
    0
 43
0
 10
38.686073
 20
164.437537
 10
36.526178
 20
164.077566
 10
36.286197
 20
166.717386
 10
34.606278
 20
166.597481
 10
31.006451
 20
165.757547
 10
27.766607
 20
164.557613
 10
24.406767
 20
162.997707
 10
21.286916
 20
161.197821
 10
18.407055
 20
159.037963
 10
15.647187
 20
156.758114
 10
13.007316
 20
154.238284
 10
10.727425
 20
151.478444
 10
8.687523000000001
 20
148.478624
 10
7.007604
 20
145.238851
 10
5.567672
 20
141.999049
 10
4.36773
 20
138.519266
 10
3.647764
 20
135.039484
 10
3.167787
 20
131.439711
 10
2.927806
 20
127.839937
  0
LWPOLYLINE
  5
63
100
AcDbEntity
  8
Layer_1
  6
ByLayer
 62
    7
370
   -1
100
AcDbPolyline
 90
    2
 70
    0
 43
0
 10
2.927792
 20
45.645077
 10
2.927792
 20
127.839852
  0
LWPOLYLINE
  5
64
100
AcDbEntity
  8
Layer_1
  6
ByLayer
 62
    7
370
   -1
100
AcDbPolyline
 90
   57
 70
    0
 43
0
 10
2.927792
 20
45.645077
 10
3.167773
 20
42.045304
 10
3.64775
 20
38.445531
 10
4.367716
 20
34.965748
 10
5.567658
 20
31.485966
 10
7.007587
 20
28.246192
 10
8.687506000000001
 20
25.006391
 10
10.72741
 20
22.00657
 10
13.007299
 20
19.246759
 10
15.647173
 20
16.726901
 10
18.407041
 20
14.327062
 10
21.286902
 20
12.407185
 10
24.406753
 20
10.487307
 10
27.76659
 20
9.047392
 10
31.006434
 20
7.727496
 10
34.606261
 20
6.887534
 10
36.28618
 20
6.767629
 10
36.526161
 20
9.287459
 10
38.686056
 20
9.167553
 10
52.605388
 20
7.727666
 10
59.685049
 20
7.367666
 10
66.76470999999999
 20
6.887704
 10
73.724374
 20
6.407742
 10
80.68404200000001
 20
6.167648
 10
87.7637
 20
6.047742
 10
94.843361
 20
5.927837
 10
101.923021
 20
5.927837
 10
109.002679
 20
5.927837
 10
115.962347
 20
6.047742
 10
123.042008
 20
6.287837
 10
130.001672
 20
6.647808
 10
137.081333
 20
7.00778
 10
144.040997
 20
7.607761
 10
151.120658
 20
8.207713999999999
 10
158.080323
 20
8.927657
 10
165.159984
 20
9.647629
 10
171.999655
 20
10.487563
 10
179.079316
 20
11.447515
 10
192.878651
 20
13.487383
 10
206.917977
 20
16.127203
 10
220.71729
 20
18.887043
 10
234.396638
 20
22.006826
 10
248.075986
 20
25.486608
 10
261.635343
 20
29.206372
 10
263.555249
 20
29.806325
 10
264.27522
 20
27.286495
 10
266.075135
 20
27.886448
 10
268.594994
 20
29.206372
 10
270.99489
 20
30.886268
 10
273.154776
 20
32.806145
 10
275.074682
 20
34.966003
 10
276.754606
 20
37.245852
 10
278.19455
 20
39.765711
 10
279.274493
 20
42.405531
 10
279.994465
 20
45.16537
 10
280.594417
 20
48.045172
 10
280.714323
 20
50.925002
  0
LWPOLYLINE
  5
65
100
AcDbEntity
  8
Layer_1
  6
ByLayer
 62
    7
370
   -1
100
AcDbPolyline
 90
    2
 70
    0
 43
0
 10
280.714436
 20
122.680174
 10
280.714436
 20
50.924729
  0
LWPOLYLINE
  5
66
100
AcDbEntity
  8
Layer_1
  6
ByLayer
 62
    7
370
   -1
100
AcDbPolyline
 90
   40
 70
    0
 43
0
 10
280.714436
 20
122.680174
 10
280.594442
 20
125.559991
 10
279.994471
 20
128.319816
 10
279.274505
 20
130.959648
 10
278.194557
 20
133.719473
 10
276.754626
 20
136.239313
 10
275.074707
 20
138.63916
 10
273.154799
 20
140.799023
 10
270.994903
 20
142.718901
 10
268.595018
 20
144.278802
 10
266.075139
 20
145.718711
 10
264.275226
 20
146.078688
 10
263.55526
 20
143.678841
 10
261.635353
 20
144.278802
 10
248.076004
 20
148.118559
 10
234.276667
 20
151.598338
 10
220.597324
 20
154.598147
 10
206.677992
 20
157.477965
 10
192.878655
 20
159.997805
 10
179.079318
 20
162.157668
 10
171.999658
 20
162.997614
 10
165.159986
 20
163.837561
 10
158.080326
 20
164.677508
 10
151.12066
 20
165.277469
 10
144.041001
 20
165.877431
 10
137.081335
 20
166.477393
 10
130.001675
 20
166.83737
 10
123.042009
 20
167.197348
 10
115.962349
 20
167.437332
 10
109.002683
 20
167.557325
 10
101.923023
 20
167.557325
 10
94.843363
 20
167.557325
 10
87.883698
 20
167.557325
 10
80.924032
 20
167.31734
 10
73.84437200000001
 20
166.957363
 10
66.764712
 20
166.717378
 10
59.685052
 20
166.237409
 10
52.605392
 20
165.757439
 10
45.645726
 20
165.157477
 10
38.686061
 20
164.437523
  0
LWPOLYLINE
  5
67
100
AcDbEntity
  8
Layer_1
  6
ByLayer
 62
    7
370
   -1
100
AcDbPolyline
 90
    2
 70
    0
 43
0
 10
261.875341
 20
148.718521
 10
261.995335
 20
149.318483
  0
LWPOLYLINE
  5
68
100
AcDbEntity
  8
Layer_1
  6
ByLayer
 62
    7
370
   -1
100
AcDbPolyline
 90
    4
 70
    0
 43
0
 10
262.835295
 20
149.19849
 10
263.075283
 20
149.19849
 10
263.195278
 20
149.318483
 10
263.315272
 20
149.558467
  0
LWPOLYLINE
  5
69
100
AcDbEntity
  8
Layer_1
  6
ByLayer
 62
    7
370
   -1
100
AcDbPolyline
 90
    2
 70
    0
 43
0
 10
262.835295
 20
24.406412
 10
261.995335
 20
24.166427
  0
LWPOLYLINE
  5
6A
100
AcDbEntity
  8
Layer_1
  6
ByLayer
 62
    7
370
   -1
100
AcDbPolyline
 90
    2
 70
    0
 43
0
 10
261.995335
 20
149.318483
 10
262.835295
 20
149.19849
  0
LWPOLYLINE
  5
6B
100
AcDbEntity
  8
Layer_1
  6
ByLayer
 62
    7
370
   -1
100
AcDbPolyline
 90
   29
 70
    0
 43
0
 10
263.315272
 20
149.558467
 10
266.195134
 20
148.598528
 10
268.835007
 20
147.278612
 10
271.354886
 20
145.718711
 10
273.874765
 20
143.798833
 10
276.034661
 20
141.63897
 10
277.834663
 20
139.359144
 10
279.634578
 20
136.959276
 10
280.834512
 20
134.199465
 10
282.034474
 20
131.439654
 10
282.754417
 20
128.559824
 10
283.354398
 20
125.560003
 10
283.474304
 20
122.560211
 10
283.474304
 20
50.924747
 10
283.354398
 20
47.924955
 10
282.754417
 20
45.045125
 10
282.034474
 20
42.165295
 10
280.834512
 20
39.285493
 10
279.634578
 20
36.525654
 10
277.834663
 20
34.125814
 10
276.034748
 20
31.845966
 10
273.874861
 20
29.686107
 10
271.354975
 20
27.886221
 10
268.835088
 20
26.326315
 10
266.195211
 20
24.8864
 10
263.315353
 20
23.926476
 10
263.195447
 20
24.16657
 10
263.075542
 20
24.406665
 10
262.835447
 20
24.406665
  0
LWPOLYLINE
  5
6C
100
AcDbEntity
  8
Layer_1
  6
ByLayer
 62
    7
370
   -1
100
AcDbPolyline
 90
    1
 70
    1
 43
0
 10
261.875381
 20
24.886457
  0
LWPOLYLINE
  5
6D
100
AcDbEntity
  8
Layer_1
  6
ByLayer
 62
    7
370
   -1
100
AcDbPolyline
 90
    1
 70
    1
 43
0
 10
39.406065
 20
4.727733
  0
LWPOLYLINE
  5
6E
100
AcDbEntity
  8
Layer_1
  6
ByLayer
 62
    7
370
   -1
100
AcDbPolyline
 90
   17
 70
    0
 43
0
 10
261.875381
 20
24.886457
 10
248.076043
 20
21.046703
 10
234.276704
 20
17.56692
 10
220.357375
 20
14.327118
 10
206.558039
 20
11.687298
 10
192.638707
 20
9.167468
 10
178.839369
 20
7.007581
 10
164.920037
 20
5.327685
 10
151.000707
 20
3.887799
 10
137.201369
 20
2.807855
 10
123.162043
 20
2.087912
 10
109.242711
 20
1.72794
 10
95.32338
 20
1.608035
 10
81.284054
 20
1.848129
 10
67.364722
 20
2.568073
 10
53.325397
 20
3.408007
 10
39.406065
 20
4.727931
  0
LWPOLYLINE
  5
6F
100
AcDbEntity
  8
Layer_1
  6
ByLayer
 62
    7
370
   -1
100
AcDbPolyline
 90
    2
 70
    0
 43
0
 10
262.115362
 20
23.566533
 10
262.115362
 20
24.166485
  0
LWPOLYLINE
  5
70
100
AcDbEntity
  8
Layer_1
  6
ByLayer
 62
    7
370
   -1
100
AcDbPolyline
 90
    2
 70
    0
 43
0
 10
261.875381
 20
24.886457
 10
262.115476
 20
23.566533
  0
LWPOLYLINE
  5
71
100
AcDbEntity
  8
Layer_1
  6
ByLayer
 62
    7
370
   -1
100
AcDbPolyline
 90
    2
 70
    0
 43
0
 10
261.875381
 20
24.886457
 10
261.2754
 20
26.926325
  0
LWPOLYLINE
  5
72
100
AcDbEntity
  8
Layer_1
  6
ByLayer
 62
    7
370
   -1
100
AcDbPolyline
 90
   17
 70
    0
 43
0
 10
262.115362
 20
23.566533
 10
248.316024
 20
19.846769
 10
234.516685
 20
16.246996
 10
220.717346
 20
13.247175
 10
206.678024
 20
10.367374
 10
192.878688
 20
7.847544
 10
178.959356
 20
5.687657
 10
165.160018
 20
4.007761
 10
151.120692
 20
2.567874
 10
137.20136
 20
1.607922
 10
123.162035
 20
0.887978
 10
109.242706
 20
0.408016
 10
95.323374
 20
0.288111
 10
81.284049
 20
0.528205
 10
67.364717
 20
1.248148
 10
53.205395
 20
2.088082
 10
39.286066
 20
3.408007
  0
LWPOLYLINE
  5
73
100
AcDbEntity
  8
Layer_1
  6
ByLayer
 62
    7
370
   -1
100
AcDbPolyline
 90
    3
 70
    0
 43
0
 10
39.286066
 20
4.12778
 10
39.286066
 20
3.407837
 10
39.406056
 20
4.727733
  0
LWPOLYLINE
  5
74
100
AcDbEntity
  8
Layer_1
  6
ByLayer
 62
    7
370
   -1
100
AcDbPolyline
 90
    2
 70
    0
 43
0
 10
39.646049
 20
6.887591
 10
39.406068
 20
4.727733
  0
LWPOLYLINE
  5
75
100
AcDbEntity
  8
Layer_1
  6
ByLayer
 62
    7
370
   -1
100
AcDbPolyline
 90
   17
 70
    0
 43
0
 10
39.646049
 20
6.887591
 10
53.565381
 20
5.567666
 10
67.484713
 20
4.607742
 10
81.404042
 20
4.007761
 10
95.323374
 20
3.767666
 10
109.242706
 20
3.887572
 10
123.042044
 20
4.127666
 10
137.08137
 20
4.84761
 10
150.880706
 20
6.047544
 10
164.680044
 20
7.48743
 10
178.47938
 20
9.167325999999999
 10
192.278718
 20
11.327185
 10
206.19805
 20
13.847043
 10
219.997375
 20
16.486863
 10
233.676723
 20
19.726665
 10
247.476061
 20
23.206448
 10
261.2754
 20
26.926211
  0
LWPOLYLINE
  5
76
100
AcDbEntity
  8
Layer_1
  6
ByLayer
 62
    7
370
   -1
100
AcDbPolyline
 90
    1
 70
    1
 43
0
 10
39.406062
 20
168.757311
  0
LWPOLYLINE
  5
77
100
AcDbEntity
  8
Layer_1
  6
ByLayer
 62
    7
370
   -1
100
AcDbPolyline
 90
    1
 70
    1
 43
0
 10
261.875381
 20
148.718577
  0
LWPOLYLINE
  5
78
100
AcDbEntity
  8
Layer_1
  6
ByLayer
 62
    7
370
   -1
100
AcDbPolyline
 90
   17
 70
    0
 43
0
 10
39.406065
 20
168.757311
 10
53.325397
 20
170.077235
 10
67.364722
 20
171.037159
 10
81.284054
 20
171.63714
 10
95.32338
 20
171.877235
 10
109.242711
 20
171.877235
 10
123.162043
 20
171.517235
 10
137.201369
 20
170.797292
 10
151.000705
 20
169.597358
 10
164.920037
 20
168.157471
 10
178.839369
 20
166.477575
 10
192.638704
 20
164.317717
 10
206.558036
 20
161.797859
 10
220.357375
 20
159.038048
 10
234.276704
 20
155.918237
 10
248.076043
 20
152.438454
 10
261.875381
 20
148.71869
  0
LWPOLYLINE
  5
79
100
AcDbEntity
  8
Layer_1
  6
ByLayer
 62
    7
370
   -1
100
AcDbPolyline
 90
    2
 70
    0
 43
0
 10
39.286071
 20
170.077235
 10
39.286071
 20
169.477282
  0
LWPOLYLINE
  5
7A
100
AcDbEntity
  8
Layer_1
  6
ByLayer
 62
    7
370
   -1
100
AcDbPolyline
 90
    2
 70
    0
 43
0
 10
39.406065
 20
168.757311
 10
39.286074
 20
170.077235
  0
LWPOLYLINE
  5
7B
100
AcDbEntity
  8
Layer_1
  6
ByLayer
 62
    7
370
   -1
100
AcDbPolyline
 90
    2
 70
    0
 43
0
 10
39.406065
 20
168.757311
 10
39.646046
 20
166.597452
  0
LWPOLYLINE
  5
7C
100
AcDbEntity
  8
Layer_1
  6
ByLayer
 62
    7
370
   -1
100
AcDbPolyline
 90
    2
 70
    0
 43
0
 10
261.2754
 20
146.558718
 10
261.875381
 20
148.718577
  0
LWPOLYLINE
  5
7D
100
AcDbEntity
  8
Layer_1
  6
ByLayer
 62
    7
370
   -1
100
AcDbPolyline
 90
    2
 70
    0
 43
0
 10
262.115362
 20
149.918511
 10
261.875268
 20
148.718577
  0
LWPOLYLINE
  5
7E
100
AcDbEntity
  8
Layer_1
  6
ByLayer
 62
    7
370
   -1
100
AcDbPolyline
 90
    2
 70
    0
 43
0
 10
262.115362
 20
149.318558
 10
262.115362
 20
149.918511
  0
LWPOLYLINE
  5
7F
100
AcDbEntity
  8
Layer_1
  6
ByLayer
 62
    7
370
   -1
100
AcDbPolyline
 90
   17
 70
    0
 43
0
 10
39.286066
 20
170.077235
 10
53.205398
 20
171.277169
 10
67.364717
 20
172.357084
 10
81.284049
 20
172.957065
 10
95.323374
 20
173.197159
 10
109.242706
 20
173.197159
 10
123.162038
 20
172.717169
 10
137.201363
 20
171.997226
 10
151.120695
 20
170.917282
 10
165.16002
 20
169.477396
 10
178.959356
 20
167.677509
 10
192.878688
 20
165.517651
 10
206.678027
 20
163.117783
 10
220.717346
 20
160.357972
 10
234.516685
 20
157.238161
 10
248.316024
 20
153.758378
 10
262.115362
 20
149.918624
  0
LWPOLYLINE
  5
80
100
AcDbEntity
  8
Layer_1
  6
ByLayer
 62
    7
370
   -1
100
AcDbPolyline
 90
   17
 70
    0
 43
0
 10
261.2754
 20
146.558718
 10
247.476061
 20
150.398473
 10
233.676723
 20
153.878255
 10
219.997375
 20
156.878076
 10
206.198045
 20
159.757877
 10
192.278713
 20
162.277707
 10
178.479377
 20
164.317603
 10
164.680038
 20
165.997471
 10
150.880703
 20
167.437386
 10
137.081364
 20
168.63732
 10
123.042039
 20
169.357263
 10
109.242703
 20
169.717235
 10
95.32337099999999
 20
169.717235
 10
81.404039
 20
169.47714
 10
67.484707
 20
168.877188
 10
53.565375
 20
167.917263
 10
39.646046
 20
166.597339
  0
LWPOLYLINE
  5
81
100
AcDbEntity
  8
Layer_1
  6
ByLayer
 62
    7
370
   -1
100
AcDbPolyline
 90
    8
 70
    1
 43
0
 10
0
 20
173.480312
 10
5.669291
 20
173.480312
 10
5.669291
 20
172.913383
 10
0
 20
172.913383
 10
0
 20
173.480312
 10
0.566929
 20
173.480312
 10
0.566929
 20
167.811021
 10
0
 20
167.811021
  0
LWPOLYLINE
  5
82
100
AcDbEntity
  8
Layer_1
  6
ByLayer
 62
    1
370
   -1
100
AcDbPolyline
 90
    1
 70
    1
 43
0
 10
210.804732
 20
102.011525
  0
LWPOLYLINE
  5
83
100
AcDbEntity
  8
Layer_1
  6
ByLayer
 62
    1
370
   -1
100
AcDbPolyline
 90
    1
 70
    1
 43
0
 10
210.803649
 20
87.11563200000001
  0
LWPOLYLINE
  5
84
100
AcDbEntity
  8
Layer_1
  6
ByLayer
 62
    1
370
   -1
100
AcDbPolyline
 90
    1
 70
    1
 43
0
 10
210.817621
 20
71.711657
  0
LWPOLYLINE
  5
85
100
AcDbEntity
  8
Layer_1
  6
ByLayer
 62
    1
370
   -1
100
AcDbPolyline
 90
    1
 70
    1
 43
0
 10
197.257058
 20
124.92184
  0
LWPOLYLINE
  5
86
100
AcDbEntity
  8
Layer_1
  6
ByLayer
 62
    1
370
   -1
100
AcDbPolyline
 90
    1
 70
    1
 43
0
 10
147.358003
 20
86.618775
  0
LWPOLYLINE
  5
87
100
AcDbEntity
  8
Layer_1
  6
ByLayer
 62
    7
370
   -1
100
AcDbPolyline
 90
    8
 70
    1
 43
0
 10
0
 20
173.47983
 10
5.669291
 20
173.47983
 10
5.669291
 20
172.912901
 10
0
 20
172.912901
 10
0
 20
173.47983
 10
0.566929
 20
173.47983
 10
0.566929
 20
167.810539
 10
0
 20
167.810539
  0
LWPOLYLINE
  5
88
100
AcDbEntity
  8
Layer_1
  6
ByLayer
 62
    7
370
   -1
100
AcDbPolyline
 90
    4
 70
    1
 43
0
 10
0
 20
0.566926
 10
5.669291
 20
0.566926
 10
5.669291
 20
-3e-006
 10
0
 20
-3e-006
  0
LWPOLYLINE
  5
89
100
AcDbEntity
  8
Layer_1
  6
ByLayer
 62
    7
370
   -1
100
AcDbPolyline
 90
    4
 70
    1
 43
0
 10
0
 20
5.669289
 10
0.566929
 20
5.669289
 10
0.566929
 20
-3e-006
 10
0
 20
-3e-006
  0
LWPOLYLINE
  5
8A
100
AcDbEntity
  8
Layer_1
  6
ByLayer
 62
    6
370
   -1
100
AcDbPolyline
 90
    1
 70
    1
 43
0
 10
252.235195
 20
123.629695
  0
LWPOLYLINE
  5
8B
100
AcDbEntity
  8
Layer_1
  6
ByLayer
 62
    6
370
   -1
100
AcDbPolyline
 90
    1
 70
    1
 43
0
 10
252.248688
 20
49.821446
  0
LWPOLYLINE
  5
8C
100
AcDbEntity
  8
Layer_1
  6
ByLayer
 62
    6
370
   -1
100
AcDbPolyline
 90
    1
 70
    1
 43
0
 10
52.137546
 20
139.486646
  0
LWPOLYLINE
  5
8D
100
AcDbEntity
  8
Layer_1
  6
ByLayer
 62
    6
370
   -1
100
AcDbPolyline
 90
    1
 70
    1
 43
0
 10
52.125847
 20
34.118274
  0
CIRCLE
  5
8E
100
AcDbEntity
  8
0
  6
ByLayer
 62
  256
370
   -1
100
AcDbCircle
 10
45.313033
 20
139.486646
 40
6.824513
  0
CIRCLE
  5
8F
100
AcDbEntity
  8
0
  6
ByLayer
 62
  256
370
   -1
100
AcDbCircle
 10
45.301334
 20
34.118274
 40
6.824513
  0
CIRCLE
  5
90
100
AcDbEntity
  8
0
  6
ByLayer
 62
  256
370
   -1
100
AcDbCircle
 10
138.58363
 20
86.618775
 40
8.774372999999997
  0
CIRCLE
  5
91
100
AcDbEntity
  8
0
  6
ByLayer
 62
  256
370
   -1
100
AcDbCircle
 10
206.639348
 20
71.711657
 40
4.178273000000004
  0
CIRCLE
  5
92
100
AcDbEntity
  8
0
  6
ByLayer
 62
  256
370
   -1
100
AcDbCircle
 10
206.625376
 20
87.11563200000001
 40
4.178273000000004
  0
CIRCLE
  5
93
100
AcDbEntity
  8
0
  6
ByLayer
 62
  256
370
   -1
100
AcDbCircle
 10
206.626459
 20
102.011525
 40
4.178273000000004
  0
CIRCLE
  5
94
100
AcDbEntity
  8
0
  6
ByLayer
 62
  256
370
   -1
100
AcDbCircle
 10
190.014718
 20
124.92184
 40
7.242339999999999
  0
CIRCLE
  5
95
100
AcDbEntity
  8
0
  6
ByLayer
 62
  256
370
   -1
100
AcDbCircle
 10
245.410682
 20
123.629695
 40
6.824512999999996
  0
CIRCLE
  5
96
100
AcDbEntity
  8
0
  6
ByLayer
 62
  256
370
   -1
100
AcDbCircle
 10
245.424175
 20
49.821446
 40
6.824512999999996
  0
ENDSEC
  0
SECTION
  2
OBJECTS
  0
DICTIONARY
  5
C
330
0
100
AcDbDictionary
281
    1
  3
ACAD_GROUP
350
D
  0
DICTIONARY
  5
D
330
C
100
AcDbDictionary
281
    1
  0
ENDSEC
  0
EOF
