999
dxfrw 0.6.3
  0
SECTION
  2
HEADER
  9
$ACADVER
  1
AC1021
  9
$DWGCODEPAGE
  3
ANSI_1252
  9
$INSBASE
 10
0
 20
0
 30
0
  9
$EXTMIN
 10
0
 20
-1e-006
 30
0
  9
$EXTMAX
 10
100.003435
 20
61.199999
 30
0
  9
$LIMMIN
 10
0
 20
0
  9
$LIMMAX
 10
420
 20
297
  9
$ORTHOMODE
 70
    0
  9
$REGENMODE
 70
    1
  9
$FILLMODE
 70
    1
  9
$QTEXTMODE
 70
    0
  9
$MIRRTEXT
 70
    0
  9
$LTSCALE
 40
1
  9
$ATTMODE
 70
    0
  9
$TEXTSIZE
 40
2.5
  9
$TRACEWID
 40
15.68
  9
$TEXTSTYLE
  7
STANDARD
  9
$CLAYER
  8
0
  9
$CELTYPE
  6
BYLAYER
  9
$CECOLOR
 62
  256
  9
$CELTSCALE
 40
1
  9
$DISPSILH
 70
    0
  9
$DIMSCALE
 40
2.5
  9
$DIMASZ
 40
0.1
  9
$DIMEXO
 40
0.025
  9
$DIMDLI
 40
3.75
  9
$DIMRND
 40
0
  9
$DIMDLE
 40
0
  9
$DIMEXE
 40
0.05
  9
$DIMTP
 40
0
  9
$DIMTM
 40
0
  9
$DIMTXT
 40
0.1
  9
$DIMCEN
 40
2.5
  9
$DIMTSZ
 40
0
  9
$DIMTOL
 70
    0
  9
$DIMLIM
 70
    0
  9
$DIMTIH
 70
    0
  9
$DIMTOH
 70
    0
  9
$DIMSE1
 70
    0
  9
$DIMSE2
 70
    0
  9
$DIMTAD
 70
    1
  9
$DIMZIN
 70
    8
  9
$DIMBLK
  1

  9
$DIMASO
 70
    1
  9
$DIMSHO
 70
    1
  9
$DIMPOST
  1

  9
$DIMAPOST
  1

  9
$DIMALT
 70
    0
  9
$DIMALTD
 70
    3
  9
$DIMALTF
 40
0.03937
  9
$DIMLFAC
 40
1
  9
$DIMTOFL
 70
    1
  9
$DIMTVP
 40
0
  9
$DIMTIX
 70
    0
  9
$DIMSOXD
 70
    0
  9
$DIMSAH
 70
    0
  9
$DIMBLK1
  1

  9
$DIMBLK2
  1

  9
$DIMSTYLE
  2
Standard
  9
$DIMCLRD
 70
    0
  9
$DIMCLRE
 70
    0
  9
$DIMCLRT
 70
    0
  9
$DIMTFAC
 40
1
  9
$DIMGAP
 40
0.025
  9
$DIMJUST
 70
    0
  9
$DIMSD1
 70
    0
  9
$DIMSD2
 70
    0
  9
$DIMTOLJ
 70
    0
  9
$DIMTZIN
 70
    8
  9
$DIMALTZ
 70
    0
  9
$DIMALTTZ
 70
    0
  9
$DIMUPT
 70
    0
  9
$DIMDEC
 70
    2
  9
$DIMTDEC
 70
    2
  9
$DIMALTU
 70
    2
  9
$DIMALTTD
 70
    3
  9
$DIMTXSTY
  7
STANDARD
  9
$DIMAUNIT
 70
    0
  9
$DIMADEC
 70
    0
  9
$DIMALTRND
 40
0
  9
$DIMAZIN
 70
    0
  9
$DIMDSEP
 70
   44
  9
$DIMATFIT
 70
    3
  9
$DIMFRAC
 70
    0
  9
$DIMLDRBLK
  1
STANDARD
  9
$DIMLUNIT
 70
    2
  9
$DIMLWD
 70
   -2
  9
$DIMLWE
 70
   -2
  9
$DIMTMOVE
 70
    0
  9
$DIMFXL
 40
1
  9
$DIMFXLON
 70
    0
  9
$DIMJOGANG
 40
0.7854
  9
$DIMTFILL
 70
    0
  9
$DIMTFILLCLR
 70
    0
  9
$DIMARCSYM
 70
    0
  9
$DIMLTYPE
  6

  9
$DIMLTEX1
  6

  9
$DIMLTEX2
  6

  9
$LUNITS
 70
    2
  9
$LUPREC
 70
    4
  9
$SKETCHINC
 40
1
  9
$FILLETRAD
 40
0
  9
$AUNITS
 70
    0
  9
$AUPREC
 70
    2
  9
$MENU
  1
.
  9
$ELEVATION
 40
0
  9
$PELEVATION
 40
0
  9
$THICKNESS
 40
0
  9
$LIMCHECK
 70
    0
  9
$CHAMFERA
 40
0
  9
$CHAMFERB
 40
0
  9
$CHAMFERC
 40
0
  9
$CHAMFERD
 40
0
  9
$SKPOLY
 70
    0
  9
$USRTIMER
 70
    1
  9
$ANGBASE
 50
0
  9
$ANGDIR
 70
    0
  9
$PDMODE
 70
   34
  9
$PDSIZE
 40
0
  9
$PLINEWID
 40
0
  9
$SPLFRAME
 70
    0
  9
$SPLINETYPE
 70
    2
  9
$SPLINESEGS
 70
    8
  9
$HANDSEED
  5
20000
  9
$SURFTAB1
 70
    6
  9
$SURFTAB2
 70
    6
  9
$SURFTYPE
 70
    6
  9
$SURFU
 70
    6
  9
$SURFV
 70
    6
  9
$UCSBASE
  2

  9
$UCSNAME
  2

  9
$UCSORG
 10
0
 20
0
 30
0
  9
$UCSXDIR
 10
1
 20
0
 30
0
  9
$UCSYDIR
 10
0
 20
1
 30
0
  9
$UCSORTHOREF
  2

  9
$UCSORTHOVIEW
 70
    0
  9
$UCSORGTOP
 10
0
 20
0
 30
0
  9
$UCSORGBOTTOM
 10
0
 20
0
 30
0
  9
$UCSORGLEFT
 10
0
 20
0
 30
0
  9
$UCSORGRIGHT
 10
0
 20
0
 30
0
  9
$UCSORGFRONT
 10
0
 20
0
 30
0
  9
$UCSORGBACK
 10
0
 20
0
 30
0
  9
$PUCSBASE
  2

  9
$PUCSNAME
  2

  9
$PUCSORG
 10
0
 20
0
 30
0
  9
$PUCSXDIR
 10
1
 20
0
 30
0
  9
$PUCSYDIR
 10
0
 20
1
 30
0
  9
$PUCSORTHOREF
  2

  9
$PUCSORTHOVIEW
 70
    0
  9
$PUCSORGTOP
 10
0
 20
0
 30
0
  9
$PUCSORGBOTTOM
 10
0
 20
0
 30
0
  9
$PUCSORGLEFT
 10
0
 20
0
 30
0
  9
$PUCSORGRIGHT
 10
0
 20
0
 30
0
  9
$PUCSORGFRONT
 10
0
 20
0
 30
0
  9
$PUCSORGBACK
 10
0
 20
0
 30
0
  9
$USERI1
 70
    0
  9
$USERI2
 70
    0
  9
$USERI3
 70
    0
  9
$USERI4
 70
    0
  9
$USERI5
 70
    0
  9
$USERR1
 40
0
  9
$USERR2
 40
0
  9
$USERR3
 40
0
  9
$USERR4
 40
0
  9
$USERR5
 40
0
  9
$WORLDVIEW
 70
    1
  9
$SHADEDGE
 70
    3
  9
$SHADEDIF
 70
   70
  9
$TILEMODE
 70
    1
  9
$MAXACTVP
 70
   64
  9
$PINSBASE
 10
0
 20
0
 30
0
  9
$PLIMCHECK
 70
    0
  9
$PEXTMIN
 10
0
 20
0
 30
0
  9
$PEXTMAX
 10
0
 20
0
 30
0
  9
$GRIDMODE
 70
    0
  9
$SNAPSTYLE
 70
    0
  9
$PLIMMIN
 10
0
 20
0
  9
$PLIMMAX
 10
4.772169328814882e-011
 20
6.749210907895394e-011
  9
$UNITMODE
 70
    0
  9
$VISRETAIN
 70
    1
  9
$PLINEGEN
 70
    0
  9
$PSLTSCALE
 70
    1
  9
$TREEDEPTH
 70
 3020
  9
$CMLSTYLE
  2
Standard
  9
$CMLJUST
 70
    0
  9
$CMLSCALE
 40
20
  9
$PROXYGRAPHICS
 70
    1
  9
$MEASUREMENT
 70
    1
  9
$CELWEIGHT
370
   -1
  9
$ENDCAPS
280
    0
  9
$JOINSTYLE
280
    0
  9
$LWDISPLAY
290
    0
  9
$INSUNITS
 70
    1
  9
$HYPERLINKBASE
  1

  9
$STYLESHEET
  1

  9
$XEDIT
290
    1
  9
$CEPSNTYPE
380
    0
  9
$PSTYLEMODE
290
    1
  9
$EXTNAMES
290
    1
  9
$PSVPSCALE
 40
1
  9
$OLESTARTUP
290
    0
  9
$SORTENTS
280
  127
  9
$INDEXCTL
280
    0
  9
$HIDETEXT
280
    1
  9
$XCLIPFRAME
290
    0
  9
$HALOGAP
280
    0
  9
$OBSCOLOR
 70
  257
  9
$OBSLTYPE
280
    0
  9
$INTERSECTIONDISPLAY
280
    0
  9
$INTERSECTIONCOLOR
 70
  257
  9
$DIMASSOC
280
    1
  9
$PROJECTNAME
  1

  9
$CAMERADISPLAY
290
    0
  9
$LENSLENGTH
 40
50
  9
$CAMERAHEIGHT
 40
0
  9
$STEPSPERSEC
 40
2
  9
$STEPSIZE
 40
50
  9
$3DDWFPREC
 40
2
  9
$PSOLWIDTH
 40
5
  9
$PSOLHEIGHT
 40
80
  9
$LOFTANG1
 40
1.570796326794897
  9
$LOFTANG2
 40
1.570796326794897
  9
$LOFTMAG1
 40
0
  9
$LOFTMAG2
 40
0
  9
$LOFTPARAM
 70
    7
  9
$LOFTNORMALS
280
    1
  9
$LATITUDE
 40
1
  9
$LONGITUDE
 40
1
  9
$NORTHDIRECTION
 40
0
  9
$TIMEZONE
 70
-8000
  9
$LIGHTGLYPHDISPLAY
280
    1
  9
$TILEMODELIGHTSYNCH
280
    1
  9
$SOLIDHIST
280
    1
  9
$SHOWHIST
280
    1
  9
$DWFFRAME
280
    2
  9
$DGNFRAME
280
    0
  9
$REALWORLDSCALE
290
    1
  9
$INTERFERECOLOR
 62
    1
  9
$CSHADOW
280
    0
  9
$SHADOWPLANELOCATION
 40
0
  0
ENDSEC
  0
SECTION
  2
CLASSES
  0
ENDSEC
  0
SECTION
  2
TABLES
  0
TABLE
  2
VPORT
  5
8
330
0
100
AcDbSymbolTable
 70
    1
  0
VPORT
  5
31
330
2
100
AcDbSymbolTableRecord
100
AcDbViewportTableRecord
  2
*ACTIVE
 70
    0
 10
0
 20
0
 11
1
 21
1
 12
80.50235579036045
 22
37.26178058713609
 13
0
 23
0
 14
10
 24
10
 15
10
 25
10
 16
0
 26
0
 36
1
 17
0
 27
0
 37
0
 40
107.3767356303533
 41
1.784026996625422
 42
50
 43
0
 44
0
 50
0
 51
0
 71
    0
 72
  100
 73
    1
 74
    3
 75
    0
 76
    0
 77
    0
 78
    0
281
    0
 65
    1
110
0
120
0
130
0
111
1
121
0
131
0
112
0
122
1
132
0
 79
    0
146
0
348
10020
 60
    7
 61
    5
292
1
282
    1
141
0
142
0
 63
  250
421
3358443
  0
ENDTAB
  0
TABLE
  2
LTYPE
  5
5
330
0
100
AcDbSymbolTable
 70
    4
  0
LTYPE
  5
14
330
5
100
AcDbSymbolTableRecord
100
AcDbLinetypeTableRecord
  2
ByBlock
 70
    0
  3

 72
   65
 73
    0
 40
0
  0
LTYPE
  5
15
330
5
100
AcDbSymbolTableRecord
100
AcDbLinetypeTableRecord
  2
ByLayer
 70
    0
  3

 72
   65
 73
    0
 40
0
  0
LTYPE
  5
16
330
5
100
AcDbSymbolTableRecord
100
AcDbLinetypeTableRecord
  2
Continuous
 70
    0
  3
Solid line
 72
   65
 73
    0
 40
0
  0
LTYPE
  5
32
330
5
100
AcDbSymbolTableRecord
100
AcDbLinetypeTableRecord
  2
DOT
 70
    0
  3
Dot . . . . . . . . . . . . . . . . . . . . . .
 72
   65
 73
    2
 40
6.35
 49
0
 74
    0
 49
-6.35
 74
    0
  0
LTYPE
  5
33
330
5
100
AcDbSymbolTableRecord
100
AcDbLinetypeTableRecord
  2
DOTTINY
 70
    0
  3
Dot (.15x) .....................................
 72
   65
 73
    2
 40
0.9525
 49
0
 74
    0
 49
-0.9525
 74
    0
  0
LTYPE
  5
34
330
5
100
AcDbSymbolTableRecord
100
AcDbLinetypeTableRecord
  2
DOT2
 70
    0
  3
Dot (.5x) .....................................
 72
   65
 73
    2
 40
3.175
 49
0
 74
    0
 49
-3.175
 74
    0
  0
LTYPE
  5
35
330
5
100
AcDbSymbolTableRecord
100
AcDbLinetypeTableRecord
  2
DOTX2
 70
    0
  3
Dot (2x) .  .  .  .  .  .  .  .  .  .  .  .  .
 72
   65
 73
    2
 40
12.7
 49
0
 74
    0
 49
-12.7
 74
    0
  0
LTYPE
  5
36
330
5
100
AcDbSymbolTableRecord
100
AcDbLinetypeTableRecord
  2
DASHED
 70
    0
  3
Dashed _ _ _ _ _ _ _ _ _ _ _ _ _ _ _ _ _
 72
   65
 73
    2
 40
19.05
 49
12.7
 74
    0
 49
-6.35
 74
    0
  0
LTYPE
  5
37
330
5
100
AcDbSymbolTableRecord
100
AcDbLinetypeTableRecord
  2
DASHEDTINY
 70
    0
  3
Dashed (.15x) _ _ _ _ _ _ _ _ _ _ _ _ _ _ _ _ _
 72
   65
 73
    2
 40
2.8575
 49
1.905
 74
    0
 49
-0.9525
 74
    0
  0
LTYPE
  5
38
330
5
100
AcDbSymbolTableRecord
100
AcDbLinetypeTableRecord
  2
DASHED2
 70
    0
  3
Dashed (.5x) _ _ _ _ _ _ _ _ _ _ _ _ _ _ _ _ _
 72
   65
 73
    2
 40
9.524999999999999
 49
6.35
 74
    0
 49
-3.175
 74
    0
  0
LTYPE
  5
39
330
5
100
AcDbSymbolTableRecord
100
AcDbLinetypeTableRecord
  2
DASHEDX2
 70
    0
  3
Dashed (2x) ____  ____  ____  ____  ____  ___
 72
   65
 73
    2
 40
38.09999999999999
 49
25.4
 74
    0
 49
-12.7
 74
    0
  0
LTYPE
  5
3A
330
5
100
AcDbSymbolTableRecord
100
AcDbLinetypeTableRecord
  2
DASHDOT
 70
    0
  3
Dash dot __ . __ . __ . __ . __ . __ . __ . __
 72
   65
 73
    4
 40
25.4
 49
12.7
 74
    0
 49
-6.35
 74
    0
 49
0
 74
    0
 49
-6.35
 74
    0
  0
LTYPE
  5
3B
330
5
100
AcDbSymbolTableRecord
100
AcDbLinetypeTableRecord
  2
DASHDOTTINY
 70
    0
  3
Dash dot (.15x) _._._._._._._._._._._._._._._.
 72
   65
 73
    4
 40
3.81
 49
1.905
 74
    0
 49
-0.9525
 74
    0
 49
0
 74
    0
 49
-0.9525
 74
    0
  0
LTYPE
  5
3C
330
5
100
AcDbSymbolTableRecord
100
AcDbLinetypeTableRecord
  2
DASHDOT2
 70
    0
  3
Dash dot (.5x) _._._._._._._._._._._._._._._.
 72
   65
 73
    4
 40
12.7
 49
6.35
 74
    0
 49
-3.175
 74
    0
 49
0
 74
    0
 49
-3.175
 74
    0
  0
LTYPE
  5
3D
330
5
100
AcDbSymbolTableRecord
100
AcDbLinetypeTableRecord
  2
DASHDOTX2
 70
    0
  3
Dash dot (2x) ____  .  ____  .  ____  .  ___
 72
   65
 73
    4
 40
50.8
 49
25.4
 74
    0
 49
-12.7
 74
    0
 49
0
 74
    0
 49
-12.7
 74
    0
  0
LTYPE
  5
3E
330
5
100
AcDbSymbolTableRecord
100
AcDbLinetypeTableRecord
  2
DIVIDE
 70
    0
  3
Divide ____ . . ____ . . ____ . . ____ . . ____
 72
   65
 73
    6
 40
31.75
 49
12.7
 74
    0
 49
-6.35
 74
    0
 49
0
 74
    0
 49
-6.35
 74
    0
 49
0
 74
    0
 49
-6.35
 74
    0
  0
LTYPE
  5
3F
330
5
100
AcDbSymbolTableRecord
100
AcDbLinetypeTableRecord
  2
DIVIDETINY
 70
    0
  3
Divide (.15x) __..__..__..__..__..__..__..__.._
 72
   65
 73
    6
 40
4.7625
 49
1.905
 74
    0
 49
-0.9525
 74
    0
 49
0
 74
    0
 49
-0.9525
 74
    0
 49
0
 74
    0
 49
-0.9525
 74
    0
  0
LTYPE
  5
40
330
5
100
AcDbSymbolTableRecord
100
AcDbLinetypeTableRecord
  2
DIVIDE2
 70
    0
  3
Divide (.5x) __..__..__..__..__..__..__..__.._
 72
   65
 73
    6
 40
15.875
 49
6.35
 74
    0
 49
-3.175
 74
    0
 49
0
 74
    0
 49
-3.175
 74
    0
 49
0
 74
    0
 49
-3.175
 74
    0
  0
LTYPE
  5
41
330
5
100
AcDbSymbolTableRecord
100
AcDbLinetypeTableRecord
  2
DIVIDEX2
 70
    0
  3
Divide (2x) ________  .  .  ________  .  .  _
 72
   65
 73
    6
 40
63.5
 49
25.4
 74
    0
 49
-12.7
 74
    0
 49
0
 74
    0
 49
-12.7
 74
    0
 49
0
 74
    0
 49
-12.7
 74
    0
  0
LTYPE
  5
42
330
5
100
AcDbSymbolTableRecord
100
AcDbLinetypeTableRecord
  2
BORDER
 70
    0
  3
Border __ __ . __ __ . __ __ . __ __ . __ __ .
 72
   65
 73
    6
 40
44.45
 49
12.7
 74
    0
 49
-6.35
 74
    0
 49
12.7
 74
    0
 49
-6.35
 74
    0
 49
0
 74
    0
 49
-6.35
 74
    0
  0
LTYPE
  5
43
330
5
100
AcDbSymbolTableRecord
100
AcDbLinetypeTableRecord
  2
BORDERTINY
 70
    0
  3
Border (.15x) __.__.__.__.__.__.__.__.__.__.__.
 72
   65
 73
    6
 40
6.6675
 49
1.905
 74
    0
 49
-0.9525
 74
    0
 49
1.905
 74
    0
 49
-0.9525
 74
    0
 49
0
 74
    0
 49
-0.9525
 74
    0
  0
LTYPE
  5
44
330
5
100
AcDbSymbolTableRecord
100
AcDbLinetypeTableRecord
  2
BORDER2
 70
    0
  3
Border (.5x) __.__.__.__.__.__.__.__.__.__.__.
 72
   65
 73
    6
 40
22.225
 49
6.35
 74
    0
 49
-3.175
 74
    0
 49
6.35
 74
    0
 49
-3.175
 74
    0
 49
0
 74
    0
 49
-3.175
 74
    0
  0
LTYPE
  5
45
330
5
100
AcDbSymbolTableRecord
100
AcDbLinetypeTableRecord
  2
BORDERX2
 70
    0
  3
Border (2x) ____  ____  .  ____  ____  .  ___
 72
   65
 73
    6
 40
88.89999999999999
 49
25.4
 74
    0
 49
-12.7
 74
    0
 49
25.4
 74
    0
 49
-12.7
 74
    0
 49
0
 74
    0
 49
-12.7
 74
    0
  0
LTYPE
  5
46
330
5
100
AcDbSymbolTableRecord
100
AcDbLinetypeTableRecord
  2
CENTER
 70
    0
  3
Center ____ _ ____ _ ____ _ ____ _ ____ _ ____
 72
   65
 73
    4
 40
50.8
 49
31.75
 74
    0
 49
-6.35
 74
    0
 49
6.35
 74
    0
 49
-6.35
 74
    0
  0
LTYPE
  5
47
330
5
100
AcDbSymbolTableRecord
100
AcDbLinetypeTableRecord
  2
CENTERTINY
 70
    0
  3
Center (.15x) ___ _ ___ _ ___ _ ___ _ ___ _ ___
 72
   65
 73
    4
 40
7.62
 49
4.7625
 74
    0
 49
-0.9525
 74
    0
 49
0.9525
 74
    0
 49
-0.9525
 74
    0
  0
LTYPE
  5
48
330
5
100
AcDbSymbolTableRecord
100
AcDbLinetypeTableRecord
  2
CENTER2
 70
    0
  3
Center (.5x) ___ _ ___ _ ___ _ ___ _ ___ _ ___
 72
   65
 73
    4
 40
28.575
 49
19.05
 74
    0
 49
-3.175
 74
    0
 49
3.175
 74
    0
 49
-3.175
 74
    0
  0
LTYPE
  5
49
330
5
100
AcDbSymbolTableRecord
100
AcDbLinetypeTableRecord
  2
CENTERX2
 70
    0
  3
Center (2x) ________  __  ________  __  _____
 72
   65
 73
    4
 40
101.6
 49
63.5
 74
    0
 49
-12.7
 74
    0
 49
12.7
 74
    0
 49
-12.7
 74
    0
  0
ENDTAB
  0
TABLE
  2
LAYER
  5
2
330
0
100
AcDbSymbolTable
 70
    1
  0
LAYER
  5
10
330
2
100
AcDbSymbolTableRecord
100
AcDbLayerTableRecord
  2
0
 70
    0
 62
    7
  6
CONTINUOUS
370
   -3
390
F
  0
LAYER
  5
4A
330
2
100
AcDbSymbolTableRecord
100
AcDbLayerTableRecord
  2
Layer_1
 70
    0
 62
    7
  6
CONTINUOUS
370
   -3
390
F
  0
ENDTAB
  0
TABLE
  2
STYLE
  5
3
330
0
100
AcDbSymbolTable
 70
    3
  0
STYLE
  5
4B
330
2
100
AcDbSymbolTableRecord
100
AcDbTextStyleTableRecord
  2
Standard
 70
    0
 40
0
 41
1
 50
0
 71
    0
 42
1
  3
txt
  4

  0
ENDTAB
  0
TABLE
  2
VIEW
  5
6
330
0
100
AcDbSymbolTable
 70
    0
  0
ENDTAB
  0
TABLE
  2
UCS
  5
7
330
0
100
AcDbSymbolTable
 70
    0
  0
ENDTAB
  0
TABLE
  2
APPID
  5
9
330
0
100
AcDbSymbolTable
 70
    1
  0
APPID
  5
12
330
9
100
AcDbSymbolTableRecord
100
AcDbRegAppTableRecord
  2
ACAD
 70
    0
  0
APPID
  5
4C
330
9
100
AcDbSymbolTableRecord
100
AcDbRegAppTableRecord
  2
LibreCad
 70
    0
  0
ENDTAB
  0
TABLE
  2
DIMSTYLE
  5
A
330
0
100
AcDbSymbolTable
 70
    1
100
AcDbDimStyleTable
 71
    1
  0
DIMSTYLE
105
4D
330
A
100
AcDbSymbolTableRecord
100
AcDbDimStyleTableRecord
  2
Standard
 70
    0
 40
2.5
 41
0.1
 42
0.025
 43
0.38
 44
0.05
 45
0
 46
0
 47
0
 48
0
 49
1
140
0.1
141
0.09
142
0
143
25.4
144
1
145
0
146
1
147
0.025
148
0
 71
    0
 72
    0
 73
    0
 74
    1
 75
    0
 76
    0
 77
    0
 78
    8
 79
    0
170
    0
171
    2
172
    0
173
    0
174
    0
175
    0
176
    0
177
    0
178
    0
179
    0
271
    2
272
    4
273
    2
274
    2
275
    0
276
    0
277
    2
278
   44
279
    0
280
    0
281
    0
282
    0
283
    1
284
    0
285
    0
286
    0
288
    0
289
    3
340
STANDARD
341

371
   -2
372
   -2
  0
ENDTAB
  0
TABLE
  2
BLOCK_RECORD
  5
1
330
0
100
AcDbSymbolTable
 70
    2
  0
BLOCK_RECORD
  5
1F
330
1
100
AcDbSymbolTableRecord
100
AcDbBlockTableRecord
  2
*Model_Space
 70
    0
280
    1
281
    0
  0
BLOCK_RECORD
  5
1E
330
1
100
AcDbSymbolTableRecord
100
AcDbBlockTableRecord
  2
*Paper_Space
 70
    0
280
    1
281
    0
  0
ENDTAB
  0
ENDSEC
  0
SECTION
  2
BLOCKS
  0
BLOCK
  5
20
330
1F
100
AcDbEntity
  8
0
100
AcDbBlockBegin
  2
*Model_Space
 70
    0
 10
0
 20
0
 30
0
  3
*Model_Space
  1

  0
ENDBLK
  5
21
330
1F
100
AcDbEntity
  8
0
100
AcDbBlockEnd
  0
BLOCK
  5
1C
330
1B
100
AcDbEntity
  8
0
100
AcDbBlockBegin
  2
*Paper_Space
 70
    0
 10
0
 20
0
 30
0
  3
*Paper_Space
  1

  0
ENDBLK
  5
1D
330
1F
100
AcDbEntity
  8
0
100
AcDbBlockEnd
  0
ENDSEC
  0
SECTION
  2
ENTITIES
  0
LWPOLYLINE
  5
4E
100
AcDbEntity
  8
Layer_1
  6
ByLayer
 62
    7
370
   -1
100
AcDbPolyline
 90
    2
 70
    0
 43
0
 10
1.03286
 20
16.102569
 10
1.03286
 20
45.099059
  0
LWPOLYLINE
  5
4F
100
AcDbEntity
  8
Layer_1
  6
ByLayer
 62
    7
370
   -1
100
AcDbPolyline
 90
    2
 70
    0
 43
0
 10
99.029815
 20
43.278839
 10
99.029815
 20
17.965113
  0
LWPOLYLINE
  5
50
100
AcDbEntity
  8
Layer_1
  6
ByLayer
 62
    7
370
   -1
100
AcDbPolyline
 90
   17
 70
    0
 43
0
 10
92.468475
 20
8.313749
 10
87.600375
 20
7.001499
 10
82.732275
 20
5.731579
 10
77.864175
 20
4.673309
 10
72.91141399999999
 20
3.657379
 10
68.04331500000001
 20
2.768439
 10
63.132884
 20
2.006479
 10
58.264784
 20
1.413849
 10
53.312022
 20
0.9058890000000001
 10
48.401591
 20
0.567239
 10
43.448829
 20
0.313259
 10
38.538399
 20
0.143939
 10
33.627968
 20
0.101639
 10
28.675206
 20
0.186339
 10
23.764775
 20
0.440319
 10
18.769681
 20
0.736629
 10
13.859251
 20
1.202269
  0
LWPOLYLINE
  5
51
100
AcDbEntity
  8
Layer_1
  6
ByLayer
 62
    7
370
   -1
100
AcDbPolyline
 90
   17
 70
    0
 43
0
 10
13.986245
 20
2.429789
 10
18.896676
 20
1.964149
 10
23.807107
 20
1.625509
 10
28.717537
 20
1.413849
 10
33.627968
 20
1.329149
 10
38.538399
 20
1.371449
 10
43.406499
 20
1.456149
 10
48.359261
 20
1.710129
 10
53.22736
 20
2.133439
 10
58.09546
 20
2.641399
 10
62.963559
 20
3.234029
 10
67.831659
 20
3.995979
 10
72.74209
 20
4.884929
 10
77.610185
 20
5.816199
 10
82.43595500000001
 20
6.959129
 10
87.30405500000001
 20
8.186719
 10
92.172155
 20
9.498969000000001
  0
LWPOLYLINE
  5
52
100
AcDbEntity
  8
Layer_1
  6
ByLayer
 62
    7
370
   -1
100
AcDbPolyline
 90
   17
 70
    0
 43
0
 10
13.859251
 20
59.999469
 10
18.769682
 20
60.422779
 10
23.764775
 20
60.803749
 10
28.675206
 20
61.015409
 10
33.627968
 20
61.100109
 10
38.538399
 20
61.100109
 10
43.44883
 20
60.930779
 10
48.401592
 20
60.676799
 10
53.312023
 20
60.295819
 10
58.264785
 20
59.787859
 10
63.132884
 20
59.152899
 10
68.04331500000001
 20
58.390949
 10
72.91141500000001
 20
57.544329
 10
77.864175
 20
56.570729
 10
82.732275
 20
55.470129
 10
87.600375
 20
54.242539
 10
92.468475
 20
52.887959
  0
SPLINE
  5
53
100
AcDbEntity
  8
Layer_1
  6
ByLayer
 62
    1
370
   -1
100
AcDbSpline
210
0
220
0
230
0
 70
    8
 71
    3
 72
    8
 73
    4
 74
    0
 42
1e-007
 43
1e-007
 40
0
 40
0
 40
0
 40
0
 40
1
 40
1
 40
1
 40
1
 10
74.367225
 20
35.987399
 30
0
 10
74.367225
 20
35.460789
 30
0
 10
74.086282
 20
34.974181
 30
0
 10
73.630224
 20
34.710876
 30
0
  0
SPLINE
  5
54
100
AcDbEntity
  8
Layer_1
  6
ByLayer
 62
    1
370
   -1
100
AcDbSpline
210
0
220
0
230
0
 70
    8
 71
    3
 72
    8
 73
    4
 74
    0
 42
1e-007
 43
1e-007
 40
0
 40
0
 40
0
 40
0
 40
1
 40
1
 40
1
 40
1
 10
73.630224
 20
34.710876
 30
0
 10
73.174166
 20
34.447571
 30
0
 10
72.61228
 20
34.447571
 30
0
 10
72.156222
 20
34.710876
 30
0
  0
SPLINE
  5
55
100
AcDbEntity
  8
Layer_1
  6
ByLayer
 62
    1
370
   -1
100
AcDbSpline
210
0
220
0
230
0
 70
    8
 71
    3
 72
    8
 73
    4
 74
    0
 42
1e-007
 43
1e-007
 40
0
 40
0
 40
0
 40
0
 40
1
 40
1
 40
1
 40
1
 10
72.156222
 20
34.710876
 30
0
 10
71.700164
 20
34.974181
 30
0
 10
71.41922099999999
 20
35.460789
 30
0
 10
71.41922099999999
 20
35.987399
 30
0
  0
SPLINE
  5
56
100
AcDbEntity
  8
Layer_1
  6
ByLayer
 62
    1
370
   -1
100
AcDbSpline
210
0
220
0
230
0
 70
    8
 71
    3
 72
    8
 73
    4
 74
    0
 42
1e-007
 43
1e-007
 40
0
 40
0
 40
0
 40
0
 40
1
 40
1
 40
1
 40
1
 10
71.41922099999999
 20
35.987399
 30
0
 10
71.41922099999999
 20
36.514009
 30
0
 10
71.700164
 20
37.000617
 30
0
 10
72.156222
 20
37.263922
 30
0
  0
SPLINE
  5
57
100
AcDbEntity
  8
Layer_1
  6
ByLayer
 62
    1
370
   -1
100
AcDbSpline
210
0
220
0
230
0
 70
    8
 71
    3
 72
    8
 73
    4
 74
    0
 42
1e-007
 43
1e-007
 40
0
 40
0
 40
0
 40
0
 40
1
 40
1
 40
1
 40
1
 10
72.156222
 20
37.263922
 30
0
 10
72.61228
 20
37.527227
 30
0
 10
73.174166
 20
37.527227
 30
0
 10
73.630224
 20
37.263922
 30
0
  0
SPLINE
  5
58
100
AcDbEntity
  8
Layer_1
  6
ByLayer
 62
    1
370
   -1
100
AcDbSpline
210
0
220
0
230
0
 70
    8
 71
    3
 72
    8
 73
    4
 74
    0
 42
1e-007
 43
1e-007
 40
0
 40
0
 40
0
 40
0
 40
1
 40
1
 40
1
 40
1
 10
73.630224
 20
37.263922
 30
0
 10
74.086282
 20
37.000617
 30
0
 10
74.367225
 20
36.514009
 30
0
 10
74.367225
 20
35.987399
 30
0
  0
LWPOLYLINE
  5
59
100
AcDbEntity
  8
Layer_1
  6
ByLayer
 62
    7
370
   -1
100
AcDbPolyline
 90
    8
 70
    1
 43
0
 10
0
 20
61.199999
 10
2
 20
61.199999
 10
2
 20
60.999999
 10
0
 20
60.999999
 10
0
 20
61.199999
 10
0.2
 20
61.199999
 10
0.2
 20
59.199999
 10
0
 20
59.199999
  0
SPLINE
  5
5A
100
AcDbEntity
  8
Layer_1
  6
ByLayer
 62
    1
370
   -1
100
AcDbSpline
210
0
220
0
230
0
 70
    8
 71
    3
 72
    8
 73
    4
 74
    0
 42
1e-007
 43
1e-007
 40
0
 40
0
 40
0
 40
0
 40
1
 40
1
 40
1
 40
1
 10
74.366843
 20
30.732459
 30
0
 10
74.366843
 20
30.205849
 30
0
 10
74.0859
 20
29.719241
 30
0
 10
73.629842
 20
29.455936
 30
0
  0
SPLINE
  5
5B
100
AcDbEntity
  8
Layer_1
  6
ByLayer
 62
    1
370
   -1
100
AcDbSpline
210
0
220
0
230
0
 70
    8
 71
    3
 72
    8
 73
    4
 74
    0
 42
1e-007
 43
1e-007
 40
0
 40
0
 40
0
 40
0
 40
1
 40
1
 40
1
 40
1
 10
73.629842
 20
29.455936
 30
0
 10
73.173784
 20
29.192631
 30
0
 10
72.611898
 20
29.192631
 30
0
 10
72.15584
 20
29.455936
 30
0
  0
SPLINE
  5
5C
100
AcDbEntity
  8
Layer_1
  6
ByLayer
 62
    1
370
   -1
100
AcDbSpline
210
0
220
0
230
0
 70
    8
 71
    3
 72
    8
 73
    4
 74
    0
 42
1e-007
 43
1e-007
 40
0
 40
0
 40
0
 40
0
 40
1
 40
1
 40
1
 40
1
 10
72.15584
 20
29.455936
 30
0
 10
71.699782
 20
29.719241
 30
0
 10
71.41883900000001
 20
30.205849
 30
0
 10
71.41883900000001
 20
30.732459
 30
0
  0
SPLINE
  5
5D
100
AcDbEntity
  8
Layer_1
  6
ByLayer
 62
    1
370
   -1
100
AcDbSpline
210
0
220
0
230
0
 70
    8
 71
    3
 72
    8
 73
    4
 74
    0
 42
1e-007
 43
1e-007
 40
0
 40
0
 40
0
 40
0
 40
1
 40
1
 40
1
 40
1
 10
71.41883900000001
 20
30.732459
 30
0
 10
71.41883900000001
 20
31.259069
 30
0
 10
71.699782
 20
31.745677
 30
0
 10
72.15584
 20
32.008982
 30
0
  0
SPLINE
  5
5E
100
AcDbEntity
  8
Layer_1
  6
ByLayer
 62
    1
370
   -1
100
AcDbSpline
210
0
220
0
230
0
 70
    8
 71
    3
 72
    8
 73
    4
 74
    0
 42
1e-007
 43
1e-007
 40
0
 40
0
 40
0
 40
0
 40
1
 40
1
 40
1
 40
1
 10
72.15584
 20
32.008982
 30
0
 10
72.611898
 20
32.272287
 30
0
 10
73.173784
 20
32.272287
 30
0
 10
73.629842
 20
32.008982
 30
0
  0
SPLINE
  5
5F
100
AcDbEntity
  8
Layer_1
  6
ByLayer
 62
    1
370
   -1
100
AcDbSpline
210
0
220
0
230
0
 70
    8
 71
    3
 72
    8
 73
    4
 74
    0
 42
1e-007
 43
1e-007
 40
0
 40
0
 40
0
 40
0
 40
1
 40
1
 40
1
 40
1
 10
73.629842
 20
32.008982
 30
0
 10
74.0859
 20
31.745677
 30
0
 10
74.366843
 20
31.259069
 30
0
 10
74.366843
 20
30.732459
 30
0
  0
LWPOLYLINE
  5
60
100
AcDbEntity
  8
Layer_1
  6
ByLayer
 62
    1
370
   -1
100
AcDbPolyline
 90
    1
 70
    1
 43
0
 10
74.367225
 20
35.987399
  0
SPLINE
  5
61
100
AcDbEntity
  8
Layer_1
  6
ByLayer
 62
    1
370
   -1
100
AcDbSpline
210
0
220
0
230
0
 70
    8
 71
    3
 72
    8
 73
    4
 74
    0
 42
1e-007
 43
1e-007
 40
0
 40
0
 40
0
 40
0
 40
1
 40
1
 40
1
 40
1
 10
74.37177200000001
 20
25.298279
 30
0
 10
74.37177200000001
 20
24.771669
 30
0
 10
74.090829
 20
24.285061
 30
0
 10
73.634771
 20
24.021756
 30
0
  0
SPLINE
  5
62
100
AcDbEntity
  8
Layer_1
  6
ByLayer
 62
    1
370
   -1
100
AcDbSpline
210
0
220
0
230
0
 70
    8
 71
    3
 72
    8
 73
    4
 74
    0
 42
1e-007
 43
1e-007
 40
0
 40
0
 40
0
 40
0
 40
1
 40
1
 40
1
 40
1
 10
73.634771
 20
24.021756
 30
0
 10
73.178713
 20
23.758451
 30
0
 10
72.616827
 20
23.758451
 30
0
 10
72.160769
 20
24.021756
 30
0
  0
SPLINE
  5
63
100
AcDbEntity
  8
Layer_1
  6
ByLayer
 62
    1
370
   -1
100
AcDbSpline
210
0
220
0
230
0
 70
    8
 71
    3
 72
    8
 73
    4
 74
    0
 42
1e-007
 43
1e-007
 40
0
 40
0
 40
0
 40
0
 40
1
 40
1
 40
1
 40
1
 10
72.160769
 20
24.021756
 30
0
 10
71.704711
 20
24.285061
 30
0
 10
71.423768
 20
24.771669
 30
0
 10
71.423768
 20
25.298279
 30
0
  0
SPLINE
  5
64
100
AcDbEntity
  8
Layer_1
  6
ByLayer
 62
    1
370
   -1
100
AcDbSpline
210
0
220
0
230
0
 70
    8
 71
    3
 72
    8
 73
    4
 74
    0
 42
1e-007
 43
1e-007
 40
0
 40
0
 40
0
 40
0
 40
1
 40
1
 40
1
 40
1
 10
71.423768
 20
25.298279
 30
0
 10
71.423768
 20
26.112348
 30
0
 10
72.083701
 20
26.772281
 30
0
 10
72.89776999999999
 20
26.772281
 30
0
  0
SPLINE
  5
65
100
AcDbEntity
  8
Layer_1
  6
ByLayer
 62
    1
370
   -1
100
AcDbSpline
210
0
220
0
230
0
 70
    8
 71
    3
 72
    8
 73
    4
 74
    0
 42
1e-007
 43
1e-007
 40
0
 40
0
 40
0
 40
0
 40
1
 40
1
 40
1
 40
1
 10
72.89776999999999
 20
26.772281
 30
0
 10
73.711839
 20
26.772281
 30
0
 10
74.37177200000001
 20
26.112348
 30
0
 10
74.37177200000001
 20
25.298279
 30
0
  0
LWPOLYLINE
  5
66
100
AcDbEntity
  8
Layer_1
  6
ByLayer
 62
    1
370
   -1
100
AcDbPolyline
 90
    1
 70
    1
 43
0
 10
74.366843
 20
30.732459
  0
SPLINE
  5
67
100
AcDbEntity
  8
Layer_1
  6
ByLayer
 62
    1
370
   -1
100
AcDbSpline
210
0
220
0
230
0
 70
    8
 71
    3
 72
    8
 73
    4
 74
    0
 42
1e-007
 43
1e-007
 40
0
 40
0
 40
0
 40
0
 40
1
 40
1
 40
1
 40
1
 10
69.587907
 20
44.069649
 30
0
 10
69.587907
 20
43.156858
 30
0
 10
69.100938
 20
42.313404
 30
0
 10
68.310438
 20
41.857009
 30
0
  0
SPLINE
  5
68
100
AcDbEntity
  8
Layer_1
  6
ByLayer
 62
    1
370
   -1
100
AcDbSpline
210
0
220
0
230
0
 70
    8
 71
    3
 72
    8
 73
    4
 74
    0
 42
1e-007
 43
1e-007
 40
0
 40
0
 40
0
 40
0
 40
1
 40
1
 40
1
 40
1
 10
68.310438
 20
41.857009
 30
0
 10
67.519938
 20
41.400614
 30
0
 10
66.546002
 20
41.400614
 30
0
 10
65.75550200000001
 20
41.857009
 30
0
  0
SPLINE
  5
69
100
AcDbEntity
  8
Layer_1
  6
ByLayer
 62
    1
370
   -1
100
AcDbSpline
210
0
220
0
230
0
 70
    8
 71
    3
 72
    8
 73
    4
 74
    0
 42
1e-007
 43
1e-007
 40
0
 40
0
 40
0
 40
0
 40
1
 40
1
 40
1
 40
1
 10
65.75550200000001
 20
41.857009
 30
0
 10
64.965002
 20
42.313404
 30
0
 10
64.478033
 20
43.156858
 30
0
 10
64.478033
 20
44.069649
 30
0
  0
SPLINE
  5
6A
100
AcDbEntity
  8
Layer_1
  6
ByLayer
 62
    1
370
   -1
100
AcDbSpline
210
0
220
0
230
0
 70
    8
 71
    3
 72
    8
 73
    4
 74
    0
 42
1e-007
 43
1e-007
 40
0
 40
0
 40
0
 40
0
 40
1
 40
1
 40
1
 40
1
 10
64.478033
 20
44.069649
 30
0
 10
64.478033
 20
44.98244
 30
0
 10
64.965002
 20
45.825894
 30
0
 10
65.75550200000001
 20
46.282289
 30
0
  0
SPLINE
  5
6B
100
AcDbEntity
  8
Layer_1
  6
ByLayer
 62
    1
370
   -1
100
AcDbSpline
210
0
220
0
230
0
 70
    8
 71
    3
 72
    8
 73
    4
 74
    0
 42
1e-007
 43
1e-007
 40
0
 40
0
 40
0
 40
0
 40
1
 40
1
 40
1
 40
1
 10
65.75550200000001
 20
46.282289
 30
0
 10
66.546002
 20
46.738684
 30
0
 10
67.519938
 20
46.738684
 30
0
 10
68.310438
 20
46.282289
 30
0
  0
SPLINE
  5
6C
100
AcDbEntity
  8
Layer_1
  6
ByLayer
 62
    1
370
   -1
100
AcDbSpline
210
0
220
0
230
0
 70
    8
 71
    3
 72
    8
 73
    4
 74
    0
 42
1e-007
 43
1e-007
 40
0
 40
0
 40
0
 40
0
 40
1
 40
1
 40
1
 40
1
 10
68.310438
 20
46.282289
 30
0
 10
69.100938
 20
45.825894
 30
0
 10
69.587907
 20
44.98244
 30
0
 10
69.587907
 20
44.069649
 30
0
  0
LWPOLYLINE
  5
6D
100
AcDbEntity
  8
Layer_1
  6
ByLayer
 62
    1
370
   -1
100
AcDbPolyline
 90
    1
 70
    1
 43
0
 10
74.37177200000001
 20
25.298279
  0
SPLINE
  5
6E
100
AcDbEntity
  8
Layer_1
  6
ByLayer
 62
    1
370
   -1
100
AcDbSpline
210
0
220
0
230
0
 70
    8
 71
    3
 72
    8
 73
    4
 74
    0
 42
1e-007
 43
1e-007
 40
0
 40
0
 40
0
 40
0
 40
1
 40
1
 40
1
 40
1
 10
51.984629
 20
30.557179
 30
0
 10
51.984629
 20
29.451298
 30
0
 10
51.394648
 20
28.429421
 30
0
 10
50.436927
 20
27.876481
 30
0
  0
SPLINE
  5
6F
100
AcDbEntity
  8
Layer_1
  6
ByLayer
 62
    1
370
   -1
100
AcDbSpline
210
0
220
0
230
0
 70
    8
 71
    3
 72
    8
 73
    4
 74
    0
 42
1e-007
 43
1e-007
 40
0
 40
0
 40
0
 40
0
 40
1
 40
1
 40
1
 40
1
 10
50.436927
 20
27.876481
 30
0
 10
49.479206
 20
27.32354
 30
0
 10
48.299244
 20
27.32354
 30
0
 10
47.341523
 20
27.876481
 30
0
  0
SPLINE
  5
70
100
AcDbEntity
  8
Layer_1
  6
ByLayer
 62
    1
370
   -1
100
AcDbSpline
210
0
220
0
230
0
 70
    8
 71
    3
 72
    8
 73
    4
 74
    0
 42
1e-007
 43
1e-007
 40
0
 40
0
 40
0
 40
0
 40
1
 40
1
 40
1
 40
1
 10
47.341523
 20
27.876481
 30
0
 10
46.383802
 20
28.429421
 30
0
 10
45.793821
 20
29.451298
 30
0
 10
45.793821
 20
30.557179
 30
0
  0
SPLINE
  5
71
100
AcDbEntity
  8
Layer_1
  6
ByLayer
 62
    1
370
   -1
100
AcDbSpline
210
0
220
0
230
0
 70
    8
 71
    3
 72
    8
 73
    4
 74
    0
 42
1e-007
 43
1e-007
 40
0
 40
0
 40
0
 40
0
 40
1
 40
1
 40
1
 40
1
 10
45.793821
 20
30.557179
 30
0
 10
45.793821
 20
31.66306
 30
0
 10
46.383802
 20
32.684937
 30
0
 10
47.341523
 20
33.237877
 30
0
  0
SPLINE
  5
72
100
AcDbEntity
  8
Layer_1
  6
ByLayer
 62
    1
370
   -1
100
AcDbSpline
210
0
220
0
230
0
 70
    8
 71
    3
 72
    8
 73
    4
 74
    0
 42
1e-007
 43
1e-007
 40
0
 40
0
 40
0
 40
0
 40
1
 40
1
 40
1
 40
1
 10
47.341523
 20
33.237877
 30
0
 10
48.299244
 20
33.790818
 30
0
 10
49.479206
 20
33.790818
 30
0
 10
50.436927
 20
33.237877
 30
0
  0
SPLINE
  5
73
100
AcDbEntity
  8
Layer_1
  6
ByLayer
 62
    1
370
   -1
100
AcDbSpline
210
0
220
0
230
0
 70
    8
 71
    3
 72
    8
 73
    4
 74
    0
 42
1e-007
 43
1e-007
 40
0
 40
0
 40
0
 40
0
 40
1
 40
1
 40
1
 40
1
 10
50.436927
 20
33.237877
 30
0
 10
51.394648
 20
32.684937
 30
0
 10
51.984629
 20
31.66306
 30
0
 10
51.984629
 20
30.557179
 30
0
  0
LWPOLYLINE
  5
74
100
AcDbEntity
  8
Layer_1
  6
ByLayer
 62
    1
370
   -1
100
AcDbPolyline
 90
    1
 70
    1
 43
0
 10
69.587907
 20
44.069649
  0
LWPOLYLINE
  5
75
100
AcDbEntity
  8
Layer_1
  6
ByLayer
 62
    1
370
   -1
100
AcDbPolyline
 90
    1
 70
    1
 43
0
 10
51.984629
 20
30.557179
  0
LWPOLYLINE
  5
76
100
AcDbEntity
  8
Layer_1
  6
ByLayer
 62
    7
370
   -1
100
AcDbPolyline
 90
    8
 70
    1
 43
0
 10
0
 20
61.199829
 10
2
 20
61.199829
 10
2
 20
60.999829
 10
0
 20
60.999829
 10
0
 20
61.199829
 10
0.2
 20
61.199829
 10
0.2
 20
59.199829
 10
0
 20
59.199829
  0
LWPOLYLINE
  5
77
100
AcDbEntity
  8
Layer_1
  6
ByLayer
 62
    7
370
   -1
100
AcDbPolyline
 90
    4
 70
    1
 43
0
 10
0
 20
0.199999
 10
2
 20
0.199999
 10
2
 20
-1e-006
 10
0
 20
-1e-006
  0
SPLINE
  5
78
100
AcDbEntity
  8
Layer_1
  6
ByLayer
 62
    6
370
   -1
100
AcDbSpline
210
0
220
0
230
0
 70
    8
 71
    3
 72
    8
 73
    4
 74
    0
 42
1e-007
 43
1e-007
 40
0
 40
0
 40
0
 40
0
 40
1
 40
1
 40
1
 40
1
 10
88.982972
 20
43.613809
 30
0
 10
88.982972
 20
42.753679
 30
0
 10
88.524098
 20
41.958886
 30
0
 10
87.779203
 20
41.528821
 30
0
  0
SPLINE
  5
79
100
AcDbEntity
  8
Layer_1
  6
ByLayer
 62
    6
370
   -1
100
AcDbSpline
210
0
220
0
230
0
 70
    8
 71
    3
 72
    8
 73
    4
 74
    0
 42
1e-007
 43
1e-007
 40
0
 40
0
 40
0
 40
0
 40
1
 40
1
 40
1
 40
1
 10
87.779203
 20
41.528821
 30
0
 10
87.03430899999999
 20
41.098756
 30
0
 10
86.116561
 20
41.098756
 30
0
 10
85.371667
 20
41.528821
 30
0
  0
SPLINE
  5
7A
100
AcDbEntity
  8
Layer_1
  6
ByLayer
 62
    6
370
   -1
100
AcDbSpline
210
0
220
0
230
0
 70
    8
 71
    3
 72
    8
 73
    4
 74
    0
 42
1e-007
 43
1e-007
 40
0
 40
0
 40
0
 40
0
 40
1
 40
1
 40
1
 40
1
 10
85.371667
 20
41.528821
 30
0
 10
84.626772
 20
41.958886
 30
0
 10
84.16789900000001
 20
42.753679
 30
0
 10
84.16789900000001
 20
43.613809
 30
0
  0
SPLINE
  5
7B
100
AcDbEntity
  8
Layer_1
  6
ByLayer
 62
    6
370
   -1
100
AcDbSpline
210
0
220
0
230
0
 70
    8
 71
    3
 72
    8
 73
    4
 74
    0
 42
1e-007
 43
1e-007
 40
0
 40
0
 40
0
 40
0
 40
1
 40
1
 40
1
 40
1
 10
84.16789900000001
 20
43.613809
 30
0
 10
84.16789900000001
 20
44.473939
 30
0
 10
84.626772
 20
45.268732
 30
0
 10
85.371667
 20
45.698797
 30
0
  0
SPLINE
  5
7C
100
AcDbEntity
  8
Layer_1
  6
ByLayer
 62
    6
370
   -1
100
AcDbSpline
210
0
220
0
230
0
 70
    8
 71
    3
 72
    8
 73
    4
 74
    0
 42
1e-007
 43
1e-007
 40
0
 40
0
 40
0
 40
0
 40
1
 40
1
 40
1
 40
1
 10
85.371667
 20
45.698797
 30
0
 10
86.116561
 20
46.128862
 30
0
 10
87.03430899999999
 20
46.128862
 30
0
 10
87.779203
 20
45.698797
 30
0
  0
SPLINE
  5
7D
100
AcDbEntity
  8
Layer_1
  6
ByLayer
 62
    6
370
   -1
100
AcDbSpline
210
0
220
0
230
0
 70
    8
 71
    3
 72
    8
 73
    4
 74
    0
 42
1e-007
 43
1e-007
 40
0
 40
0
 40
0
 40
0
 40
1
 40
1
 40
1
 40
1
 10
87.779203
 20
45.698797
 30
0
 10
88.524098
 20
45.268732
 30
0
 10
88.982972
 20
44.473939
 30
0
 10
88.982972
 20
43.613809
 30
0
  0
LWPOLYLINE
  5
7E
100
AcDbEntity
  8
Layer_1
  6
ByLayer
 62
    7
370
   -1
100
AcDbPolyline
 90
    4
 70
    1
 43
0
 10
0
 20
1.999999
 10
0.2
 20
1.999999
 10
0.2
 20
-1e-006
 10
0
 20
-1e-006
  0
SPLINE
  5
7F
100
AcDbEntity
  8
Layer_1
  6
ByLayer
 62
    6
370
   -1
100
AcDbSpline
210
0
220
0
230
0
 70
    8
 71
    3
 72
    8
 73
    4
 74
    0
 42
1e-007
 43
1e-007
 40
0
 40
0
 40
0
 40
0
 40
1
 40
1
 40
1
 40
1
 10
88.98773199999999
 20
17.575899
 30
0
 10
88.987731
 20
16.246253
 30
0
 10
87.909841
 20
15.168363
 30
0
 10
86.580195
 20
15.168363
 30
0
  0
SPLINE
  5
80
100
AcDbEntity
  8
Layer_1
  6
ByLayer
 62
    6
370
   -1
100
AcDbSpline
210
0
220
0
230
0
 70
    8
 71
    3
 72
    8
 73
    4
 74
    0
 42
1e-007
 43
1e-007
 40
0
 40
0
 40
0
 40
0
 40
1
 40
1
 40
1
 40
1
 10
86.580195
 20
15.168363
 30
0
 10
85.25054900000001
 20
15.168363
 30
0
 10
84.172659
 20
16.246253
 30
0
 10
84.172659
 20
17.575899
 30
0
  0
SPLINE
  5
81
100
AcDbEntity
  8
Layer_1
  6
ByLayer
 62
    6
370
   -1
100
AcDbSpline
210
0
220
0
230
0
 70
    8
 71
    3
 72
    8
 73
    4
 74
    0
 42
1e-007
 43
1e-007
 40
0
 40
0
 40
0
 40
0
 40
1
 40
1
 40
1
 40
1
 10
84.172659
 20
17.575899
 30
0
 10
84.172659
 20
18.905545
 30
0
 10
85.25054900000001
 20
19.983435
 30
0
 10
86.580195
 20
19.983435
 30
0
  0
SPLINE
  5
82
100
AcDbEntity
  8
Layer_1
  6
ByLayer
 62
    6
370
   -1
100
AcDbSpline
210
0
220
0
230
0
 70
    8
 71
    3
 72
    8
 73
    4
 74
    0
 42
1e-007
 43
1e-007
 40
0
 40
0
 40
0
 40
0
 40
1
 40
1
 40
1
 40
1
 10
86.580195
 20
19.983435
 30
0
 10
87.909841
 20
19.983435
 30
0
 10
88.987731
 20
18.905545
 30
0
 10
88.98773199999999
 20
17.575899
 30
0
  0
LWPOLYLINE
  5
83
100
AcDbEntity
  8
Layer_1
  6
ByLayer
 62
    6
370
   -1
100
AcDbPolyline
 90
    1
 70
    1
 43
0
 10
88.982972
 20
43.613809
  0
SPLINE
  5
84
100
AcDbEntity
  8
Layer_1
  6
ByLayer
 62
    6
370
   -1
100
AcDbSpline
210
0
220
0
230
0
 70
    8
 71
    3
 72
    8
 73
    4
 74
    0
 42
1e-007
 43
1e-007
 40
0
 40
0
 40
0
 40
0
 40
1
 40
1
 40
1
 40
1
 10
18.392968
 20
49.207789
 30
0
 10
18.392967
 20
47.878143
 30
0
 10
17.315077
 20
46.800253
 30
0
 10
15.985431
 20
46.800253
 30
0
  0
SPLINE
  5
85
100
AcDbEntity
  8
Layer_1
  6
ByLayer
 62
    6
370
   -1
100
AcDbSpline
210
0
220
0
230
0
 70
    8
 71
    3
 72
    8
 73
    4
 74
    0
 42
1e-007
 43
1e-007
 40
0
 40
0
 40
0
 40
0
 40
1
 40
1
 40
1
 40
1
 10
15.985431
 20
46.800253
 30
0
 10
14.655785
 20
46.800253
 30
0
 10
13.577895
 20
47.878143
 30
0
 10
13.577895
 20
49.207789
 30
0
  0
SPLINE
  5
86
100
AcDbEntity
  8
Layer_1
  6
ByLayer
 62
    6
370
   -1
100
AcDbSpline
210
0
220
0
230
0
 70
    8
 71
    3
 72
    8
 73
    4
 74
    0
 42
1e-007
 43
1e-007
 40
0
 40
0
 40
0
 40
0
 40
1
 40
1
 40
1
 40
1
 10
13.577895
 20
49.207789
 30
0
 10
13.577895
 20
50.067919
 30
0
 10
14.036768
 20
50.862712
 30
0
 10
14.781663
 20
51.292777
 30
0
  0
SPLINE
  5
87
100
AcDbEntity
  8
Layer_1
  6
ByLayer
 62
    6
370
   -1
100
AcDbSpline
210
0
220
0
230
0
 70
    8
 71
    3
 72
    8
 73
    4
 74
    0
 42
1e-007
 43
1e-007
 40
0
 40
0
 40
0
 40
0
 40
1
 40
1
 40
1
 40
1
 10
14.781663
 20
51.292777
 30
0
 10
15.526557
 20
51.722842
 30
0
 10
16.444305
 20
51.722842
 30
0
 10
17.189199
 20
51.292777
 30
0
  0
SPLINE
  5
88
100
AcDbEntity
  8
Layer_1
  6
ByLayer
 62
    6
370
   -1
100
AcDbSpline
210
0
220
0
230
0
 70
    8
 71
    3
 72
    8
 73
    4
 74
    0
 42
1e-007
 43
1e-007
 40
0
 40
0
 40
0
 40
0
 40
1
 40
1
 40
1
 40
1
 10
17.189199
 20
51.292777
 30
0
 10
17.934094
 20
50.862712
 30
0
 10
18.392968
 20
50.067919
 30
0
 10
18.392968
 20
49.207789
 30
0
  0
LWPOLYLINE
  5
89
100
AcDbEntity
  8
Layer_1
  6
ByLayer
 62
    6
370
   -1
100
AcDbPolyline
 90
    1
 70
    1
 43
0
 10
88.98773199999999
 20
17.575899
  0
SPLINE
  5
8A
100
AcDbEntity
  8
Layer_1
  6
ByLayer
 62
    6
370
   -1
100
AcDbSpline
210
0
220
0
230
0
 70
    8
 71
    3
 72
    8
 73
    4
 74
    0
 42
1e-007
 43
1e-007
 40
0
 40
0
 40
0
 40
0
 40
1
 40
1
 40
1
 40
1
 10
18.388841
 20
12.036169
 30
0
 10
18.388841
 20
11.176039
 30
0
 10
17.929967
 20
10.381246
 30
0
 10
17.185072
 20
9.951181
 30
0
  0
SPLINE
  5
8B
100
AcDbEntity
  8
Layer_1
  6
ByLayer
 62
    6
370
   -1
100
AcDbSpline
210
0
220
0
230
0
 70
    8
 71
    3
 72
    8
 73
    4
 74
    0
 42
1e-007
 43
1e-007
 40
0
 40
0
 40
0
 40
0
 40
1
 40
1
 40
1
 40
1
 10
17.185072
 20
9.951181
 30
0
 10
16.440178
 20
9.521115999999999
 30
0
 10
15.52243
 20
9.521115999999999
 30
0
 10
14.777536
 20
9.951181
 30
0
  0
SPLINE
  5
8C
100
AcDbEntity
  8
Layer_1
  6
ByLayer
 62
    6
370
   -1
100
AcDbSpline
210
0
220
0
230
0
 70
    8
 71
    3
 72
    8
 73
    4
 74
    0
 42
1e-007
 43
1e-007
 40
0
 40
0
 40
0
 40
0
 40
1
 40
1
 40
1
 40
1
 10
14.777536
 20
9.951181
 30
0
 10
14.032641
 20
10.381246
 30
0
 10
13.573768
 20
11.176039
 30
0
 10
13.573768
 20
12.036169
 30
0
  0
SPLINE
  5
8D
100
AcDbEntity
  8
Layer_1
  6
ByLayer
 62
    6
370
   -1
100
AcDbSpline
210
0
220
0
230
0
 70
    8
 71
    3
 72
    8
 73
    4
 74
    0
 42
1e-007
 43
1e-007
 40
0
 40
0
 40
0
 40
0
 40
1
 40
1
 40
1
 40
1
 10
13.573768
 20
12.036169
 30
0
 10
13.573768
 20
13.365815
 30
0
 10
14.651658
 20
14.443705
 30
0
 10
15.981304
 20
14.443705
 30
0
  0
SPLINE
  5
8E
100
AcDbEntity
  8
Layer_1
  6
ByLayer
 62
    6
370
   -1
100
AcDbSpline
210
0
220
0
230
0
 70
    8
 71
    3
 72
    8
 73
    4
 74
    0
 42
1e-007
 43
1e-007
 40
0
 40
0
 40
0
 40
0
 40
1
 40
1
 40
1
 40
1
 10
15.981304
 20
14.443705
 30
0
 10
17.31095
 20
14.443705
 30
0
 10
18.38884
 20
13.365815
 30
0
 10
18.388841
 20
12.036169
 30
0
  0
LWPOLYLINE
  5
8F
100
AcDbEntity
  8
Layer_1
  6
ByLayer
 62
    6
370
   -1
100
AcDbPolyline
 90
    1
 70
    1
 43
0
 10
18.392968
 20
49.207789
  0
LWPOLYLINE
  5
90
100
AcDbEntity
  8
Layer_1
  6
ByLayer
 62
    6
370
   -1
100
AcDbPolyline
 90
    1
 70
    1
 43
0
 10
18.388841
 20
12.036169
  0
LINE
  5
91
100
AcDbEntity
  8
0
  6
ByLayer
 62
  256
370
   -1
100
AcDbLine
 10
13.435957
 20
59.914779
 11
13.859251
 21
59.999469
  0
LINE
  5
92
100
AcDbEntity
  8
0
  6
ByLayer
 62
  256
370
   -1
100
AcDbLine
 10
92.468475
 20
52.887959
 11
92.89177599999999
 21
52.760904
  0
LINE
  5
93
100
AcDbEntity
  8
0
  6
ByLayer
 62
  256
370
   -1
100
AcDbLine
 10
92.172155
 20
51.702659
 11
93.23042700000001
 21
51.533315
  0
LINE
  5
94
100
AcDbEntity
  8
Layer_1
  6
CONTINUOUS
 62
    7
370
   -3
100
AcDbLine
 10
13.435957
 20
1.244503
 11
12.166018
 21
1.456156
  0
LINE
  5
95
100
AcDbEntity
  8
Layer_1
  6
CONTINUOUS
 62
    7
370
    0
100
AcDbLine
 10
12.166018
 20
1.456156
 11
10.896079
 21
1.752471
  0
LINE
  5
96
100
AcDbEntity
  8
Layer_1
  6
CONTINUOUS
 62
    7
370
    0
100
AcDbLine
 10
10.896079
 20
1.752471
 11
9.668471
 21
2.175777
  0
LINE
  5
97
100
AcDbEntity
  8
Layer_1
  6
CONTINUOUS
 62
    7
370
    0
100
AcDbLine
 10
9.668471
 20
2.175777
 11
8.525525999999999
 21
2.683745
  0
LINE
  5
98
100
AcDbEntity
  8
Layer_1
  6
CONTINUOUS
 62
    7
370
    0
100
AcDbLine
 10
8.525525999999999
 20
2.683745
 11
7.382581
 21
3.276374
  0
LINE
  5
99
100
AcDbEntity
  8
Layer_1
  6
CONTINUOUS
 62
    7
370
    0
100
AcDbLine
 10
7.382581
 20
3.276374
 11
6.324298
 21
3.995995
  0
LINE
  5
9A
100
AcDbEntity
  8
Layer_1
  6
CONTINUOUS
 62
    7
370
    0
100
AcDbLine
 10
6.324298
 20
3.995995
 11
5.308347
 21
4.800277
  0
LINE
  5
9B
100
AcDbEntity
  8
Layer_1
  6
CONTINUOUS
 62
    7
370
    0
100
AcDbLine
 10
5.308347
 20
4.800277
 11
4.334727
 21
5.689221
  0
LINE
  5
9C
100
AcDbEntity
  8
Layer_1
  6
CONTINUOUS
 62
    7
370
    0
100
AcDbLine
 10
4.334727
 20
5.689221
 11
3.488101
 21
6.662826
  0
LINE
  5
9D
100
AcDbEntity
  8
Layer_1
  6
CONTINUOUS
 62
    7
370
    0
100
AcDbLine
 10
3.488101
 20
6.662826
 11
2.726138
 21
7.678761
  0
LINE
  5
9E
100
AcDbEntity
  8
Layer_1
  6
CONTINUOUS
 62
    7
370
    0
100
AcDbLine
 10
2.726138
 20
7.678761
 11
2.048837
 21
8.737026999999999
  0
LINE
  5
9F
100
AcDbEntity
  8
Layer_1
  6
CONTINUOUS
 62
    7
370
    0
100
AcDbLine
 10
2.048837
 20
8.737026999999999
 11
1.456199
 21
9.879955000000001
  0
LINE
  5
A0
100
AcDbEntity
  8
Layer_1
  6
CONTINUOUS
 62
    7
370
    0
100
AcDbLine
 10
1.456199
 20
9.879955000000001
 11
0.990554
 21
11.065213
  0
LINE
  5
A1
100
AcDbEntity
  8
Layer_1
  6
CONTINUOUS
 62
    7
370
    0
100
AcDbLine
 10
0.990554
 20
11.065213
 11
0.609573
 21
12.292802
  0
LINE
  5
A2
100
AcDbEntity
  8
Layer_1
  6
CONTINUOUS
 62
    7
370
    0
100
AcDbLine
 10
0.609573
 20
12.292802
 11
0.355585
 21
13.562721
  0
LINE
  5
A3
100
AcDbEntity
  8
Layer_1
  6
CONTINUOUS
 62
    7
370
    0
100
AcDbLine
 10
0.355585
 20
13.562721
 11
0.143928
 21
14.83264
  0
LINE
  5
A4
100
AcDbEntity
  8
Layer_1
  6
CONTINUOUS
 62
    7
370
    0
100
AcDbLine
 10
0.143928
 20
14.83264
 11
0.101597
 21
16.14489
  0
LINE
  5
A5
100
AcDbEntity
  8
Layer_1
  6
CONTINUOUS
 62
    7
370
    0
100
AcDbLine
 10
0.101597
 20
16.14489
 11
0.101597
 21
45.099052
  0
LINE
  5
A6
100
AcDbEntity
  8
Layer_1
  6
CONTINUOUS
 62
    7
370
    0
100
AcDbLine
 10
0.101597
 20
45.099052
 11
0.143928
 21
46.368972
  0
LINE
  5
A7
100
AcDbEntity
  8
Layer_1
  6
CONTINUOUS
 62
    7
370
    0
100
AcDbLine
 10
0.143928
 20
46.368972
 11
0.355585
 21
47.638891
  0
LINE
  5
A8
100
AcDbEntity
  8
Layer_1
  6
CONTINUOUS
 62
    7
370
    0
100
AcDbLine
 10
0.355585
 20
47.638891
 11
0.609573
 21
48.908811
  0
LINE
  5
A9
100
AcDbEntity
  8
Layer_1
  6
CONTINUOUS
 62
    7
370
    0
100
AcDbLine
 10
0.609573
 20
48.908811
 11
0.990554
 21
50.136399
  0
LINE
  5
AA
100
AcDbEntity
  8
Layer_1
  6
CONTINUOUS
 62
    7
370
    0
100
AcDbLine
 10
0.990554
 20
50.136399
 11
1.456199
 21
51.363988
  0
LINE
  5
AB
100
AcDbEntity
  8
Layer_1
  6
CONTINUOUS
 62
    7
370
    0
100
AcDbLine
 10
1.456199
 20
51.363988
 11
2.048837
 21
52.464585
  0
LINE
  5
AC
100
AcDbEntity
  8
Layer_1
  6
CONTINUOUS
 62
    7
370
    0
100
AcDbLine
 10
2.048837
 20
52.464585
 11
2.726138
 21
53.522851
  0
LINE
  5
AD
100
AcDbEntity
  8
Layer_1
  6
CONTINUOUS
 62
    7
370
    0
100
AcDbLine
 10
2.726138
 20
53.522851
 11
3.488101
 21
54.581117
  0
LINE
  5
AE
100
AcDbEntity
  8
Layer_1
  6
CONTINUOUS
 62
    7
370
    0
100
AcDbLine
 10
3.488101
 20
54.581117
 11
4.334727
 21
55.554722
  0
LINE
  5
AF
100
AcDbEntity
  8
Layer_1
  6
CONTINUOUS
 62
    7
370
    0
100
AcDbLine
 10
4.334727
 20
55.554722
 11
5.308347
 21
56.443666
  0
LINE
  5
B0
100
AcDbEntity
  8
Layer_1
  6
CONTINUOUS
 62
    7
370
    0
100
AcDbLine
 10
5.308347
 20
56.443666
 11
6.324298
 21
57.205617
  0
LINE
  5
B1
100
AcDbEntity
  8
Layer_1
  6
CONTINUOUS
 62
    7
370
    0
100
AcDbLine
 10
6.324298
 20
57.205617
 11
7.382581
 21
57.882908
  0
LINE
  5
B2
100
AcDbEntity
  8
Layer_1
  6
CONTINUOUS
 62
    7
370
    0
100
AcDbLine
 10
7.382581
 20
57.882908
 11
8.525525999999999
 21
58.517867
  0
LINE
  5
B3
100
AcDbEntity
  8
Layer_1
  6
CONTINUOUS
 62
    7
370
    0
100
AcDbLine
 10
8.525525999999999
 20
58.517867
 11
9.668471
 21
59.025835
  0
LINE
  5
B4
100
AcDbEntity
  8
Layer_1
  6
CONTINUOUS
 62
    7
370
    0
100
AcDbLine
 10
9.668471
 20
59.025835
 11
10.896079
 21
59.406811
  0
LINE
  5
B5
100
AcDbEntity
  8
Layer_1
  6
CONTINUOUS
 62
    7
370
    0
100
AcDbLine
 10
10.896079
 20
59.406811
 11
12.166018
 21
59.745456
  0
LINE
  5
B6
100
AcDbEntity
  8
Layer_1
  6
CONTINUOUS
 62
    7
370
    0
100
AcDbLine
 10
12.166018
 20
59.745456
 11
13.435957
 21
59.914779
  0
LINE
  5
B7
100
AcDbEntity
  8
Layer_1
  6
CONTINUOUS
 62
    7
370
    0
100
AcDbLine
 10
12.800964
 20
58.814189
 11
12.208326
 21
58.771889
  0
LINE
  5
B8
100
AcDbEntity
  8
Layer_1
  6
CONTINUOUS
 62
    7
370
    0
100
AcDbLine
 10
12.208326
 20
58.771889
 11
10.938387
 21
58.475579
  0
LINE
  5
B9
100
AcDbEntity
  8
Layer_1
  6
CONTINUOUS
 62
    7
370
    0
100
AcDbLine
 10
10.938387
 20
58.475579
 11
9.795442
 21
58.052269
  0
LINE
  5
BA
100
AcDbEntity
  8
Layer_1
  6
CONTINUOUS
 62
    7
370
    0
100
AcDbLine
 10
9.795442
 20
58.052269
 11
8.610165
 21
57.501969
  0
LINE
  5
BB
100
AcDbEntity
  8
Layer_1
  6
CONTINUOUS
 62
    7
370
    0
100
AcDbLine
 10
8.610165
 20
57.501969
 11
7.509551
 21
56.867009
  0
LINE
  5
BC
100
AcDbEntity
  8
Layer_1
  6
CONTINUOUS
 62
    7
370
    0
100
AcDbLine
 10
7.509551
 20
56.867009
 11
6.4936
 21
56.105059
  0
LINE
  5
BD
100
AcDbEntity
  8
Layer_1
  6
CONTINUOUS
 62
    7
370
    0
100
AcDbLine
 10
6.4936
 20
56.105059
 11
5.51998
 21
55.300779
  0
LINE
  5
BE
100
AcDbEntity
  8
Layer_1
  6
CONTINUOUS
 62
    7
370
    0
100
AcDbLine
 10
5.51998
 20
55.300779
 11
4.588692
 21
54.411839
  0
LINE
  5
BF
100
AcDbEntity
  8
Layer_1
  6
CONTINUOUS
 62
    7
370
    0
100
AcDbLine
 10
4.588692
 20
54.411839
 11
3.784397
 21
53.438229
  0
LINE
  5
C0
100
AcDbEntity
  8
Layer_1
  6
CONTINUOUS
 62
    7
370
    0
100
AcDbLine
 10
3.784397
 20
53.438229
 11
3.064765
 21
52.379959
  0
LINE
  5
C1
100
AcDbEntity
  8
Layer_1
  6
CONTINUOUS
 62
    7
370
    0
100
AcDbLine
 10
3.064765
 20
52.379959
 11
2.472127
 21
51.237039
  0
LINE
  5
C2
100
AcDbEntity
  8
Layer_1
  6
CONTINUOUS
 62
    7
370
    0
100
AcDbLine
 10
2.472127
 20
51.237039
 11
1.964151
 21
50.094109
  0
LINE
  5
C3
100
AcDbEntity
  8
Layer_1
  6
CONTINUOUS
 62
    7
370
    0
100
AcDbLine
 10
1.964151
 20
50.094109
 11
1.540838
 21
48.866519
  0
LINE
  5
C4
100
AcDbEntity
  8
Layer_1
  6
CONTINUOUS
 62
    7
370
    0
100
AcDbLine
 10
1.540838
 20
48.866519
 11
1.28685
 21
47.638929
  0
LINE
  5
C5
100
AcDbEntity
  8
Layer_1
  6
CONTINUOUS
 62
    7
370
    0
100
AcDbLine
 10
1.28685
 20
47.638929
 11
1.117525
 21
46.369009
  0
LINE
  5
C6
100
AcDbEntity
  8
Layer_1
  6
CONTINUOUS
 62
    7
370
    0
100
AcDbLine
 10
1.117525
 20
46.369009
 11
1.032865
 21
45.099089
  0
LINE
  5
C7
100
AcDbEntity
  8
Layer_1
  6
CONTINUOUS
 62
    7
370
   -3
100
AcDbLine
 10
99.029815
 20
43.278839
 11
98.98748399999999
 21
44.294775
  0
LINE
  5
C8
100
AcDbEntity
  8
Layer_1
  6
CONTINUOUS
 62
    7
370
    0
100
AcDbLine
 10
98.98748399999999
 20
44.294775
 11
98.77582700000001
 21
45.268379
  0
LINE
  5
C9
100
AcDbEntity
  8
Layer_1
  6
CONTINUOUS
 62
    7
370
    0
100
AcDbLine
 10
98.77582700000001
 20
45.268379
 11
98.521839
 21
46.199654
  0
LINE
  5
CA
100
AcDbEntity
  8
Layer_1
  6
CONTINUOUS
 62
    7
370
    0
100
AcDbLine
 10
98.521839
 20
46.199654
 11
98.14085799999999
 21
47.173258
  0
LINE
  5
CB
100
AcDbEntity
  8
Layer_1
  6
CONTINUOUS
 62
    7
370
    0
100
AcDbLine
 10
98.14085799999999
 20
47.173258
 11
97.632882
 21
48.062202
  0
LINE
  5
CC
100
AcDbEntity
  8
Layer_1
  6
CONTINUOUS
 62
    7
370
    0
100
AcDbLine
 10
97.632882
 20
48.062202
 11
97.040244
 21
48.908815
  0
LINE
  5
CD
100
AcDbEntity
  8
Layer_1
  6
CONTINUOUS
 62
    7
370
    0
100
AcDbLine
 10
97.040244
 20
48.908815
 11
96.362943
 21
49.670767
  0
LINE
  5
CE
100
AcDbEntity
  8
Layer_1
  6
CONTINUOUS
 62
    7
370
    0
100
AcDbLine
 10
96.362943
 20
49.670767
 11
95.60098000000001
 21
50.348057
  0
LINE
  5
CF
100
AcDbEntity
  8
Layer_1
  6
CONTINUOUS
 62
    7
370
    0
100
AcDbLine
 10
95.60098000000001
 20
50.348057
 11
94.75435400000001
 21
50.898355
  0
LINE
  5
D0
100
AcDbEntity
  8
Layer_1
  6
CONTINUOUS
 62
    7
370
    0
100
AcDbLine
 10
94.75435400000001
 20
50.898355
 11
93.865396
 21
51.406323
  0
LINE
  5
D1
100
AcDbEntity
  8
Layer_1
  6
CONTINUOUS
 62
    7
370
    0
100
AcDbLine
 10
93.865396
 20
51.406323
 11
93.23042700000001
 21
51.533315
  0
LINE
  5
D2
100
AcDbEntity
  8
Layer_1
  6
CONTINUOUS
 62
    7
370
   -3
100
AcDbLine
 10
92.172155
 20
51.702659
 11
87.30405500000001
 21
53.057239
  0
LINE
  5
D3
100
AcDbEntity
  8
Layer_1
  6
CONTINUOUS
 62
    7
370
    0
100
AcDbLine
 10
87.30405500000001
 20
53.057239
 11
82.43595500000001
 21
54.284829
  0
LINE
  5
D4
100
AcDbEntity
  8
Layer_1
  6
CONTINUOUS
 62
    7
370
    0
100
AcDbLine
 10
82.43595500000001
 20
54.284829
 11
77.610185
 21
55.343099
  0
LINE
  5
D5
100
AcDbEntity
  8
Layer_1
  6
CONTINUOUS
 62
    7
370
    0
100
AcDbLine
 10
77.610185
 20
55.343099
 11
72.742088
 21
56.359029
  0
LINE
  5
D6
100
AcDbEntity
  8
Layer_1
  6
CONTINUOUS
 62
    7
370
    0
100
AcDbLine
 10
72.742088
 20
56.359029
 11
67.83165700000001
 21
57.247969
  0
LINE
  5
D7
100
AcDbEntity
  8
Layer_1
  6
CONTINUOUS
 62
    7
370
    0
100
AcDbLine
 10
67.83165700000001
 20
57.247969
 11
62.963558
 21
57.967599
  0
LINE
  5
D8
100
AcDbEntity
  8
Layer_1
  6
CONTINUOUS
 62
    7
370
    0
100
AcDbLine
 10
62.963558
 20
57.967599
 11
58.095458
 21
58.560219
  0
LINE
  5
D9
100
AcDbEntity
  8
Layer_1
  6
CONTINUOUS
 62
    7
370
    0
100
AcDbLine
 10
58.095458
 20
58.560219
 11
53.227359
 21
59.068189
  0
LINE
  5
DA
100
AcDbEntity
  8
Layer_1
  6
CONTINUOUS
 62
    7
370
    0
100
AcDbLine
 10
53.227359
 20
59.068189
 11
48.359259
 21
59.491499
  0
LINE
  5
DB
100
AcDbEntity
  8
Layer_1
  6
CONTINUOUS
 62
    7
370
    0
100
AcDbLine
 10
48.359259
 20
59.491499
 11
43.406497
 21
59.745479
  0
LINE
  5
DC
100
AcDbEntity
  8
Layer_1
  6
CONTINUOUS
 62
    7
370
    0
100
AcDbLine
 10
43.406497
 20
59.745479
 11
38.538398
 21
59.872469
  0
LINE
  5
DD
100
AcDbEntity
  8
Layer_1
  6
CONTINUOUS
 62
    7
370
    0
100
AcDbLine
 10
38.538398
 20
59.872469
 11
33.627967
 21
59.872469
  0
LINE
  5
DE
100
AcDbEntity
  8
Layer_1
  6
CONTINUOUS
 62
    7
370
    0
100
AcDbLine
 10
33.627967
 20
59.872469
 11
28.717536
 21
59.787769
  0
LINE
  5
DF
100
AcDbEntity
  8
Layer_1
  6
CONTINUOUS
 62
    7
370
    0
100
AcDbLine
 10
28.717536
 20
59.787769
 11
23.807105
 21
59.576119
  0
LINE
  5
E0
100
AcDbEntity
  8
Layer_1
  6
CONTINUOUS
 62
    7
370
    0
100
AcDbLine
 10
23.807105
 20
59.576119
 11
18.896674
 21
59.237479
  0
LINE
  5
E1
100
AcDbEntity
  8
Layer_1
  6
CONTINUOUS
 62
    7
370
    0
100
AcDbLine
 10
18.896674
 20
59.237479
 11
13.986244
 21
58.771839
  0
LINE
  5
E2
100
AcDbEntity
  8
Layer_1
  6
CONTINUOUS
 62
    7
370
   -3
100
AcDbLine
 10
1.03286
 20
16.102569
 11
1.11752
 21
14.832649
  0
LINE
  5
E3
100
AcDbEntity
  8
Layer_1
  6
CONTINUOUS
 62
    7
370
    0
100
AcDbLine
 10
1.11752
 20
14.832649
 11
1.286845
 21
13.562729
  0
LINE
  5
E4
100
AcDbEntity
  8
Layer_1
  6
CONTINUOUS
 62
    7
370
    0
100
AcDbLine
 10
1.286845
 20
13.562729
 11
1.540833
 21
12.335139
  0
LINE
  5
E5
100
AcDbEntity
  8
Layer_1
  6
CONTINUOUS
 62
    7
370
    0
100
AcDbLine
 10
1.540833
 20
12.335139
 11
1.964146
 21
11.107549
  0
LINE
  5
E6
100
AcDbEntity
  8
Layer_1
  6
CONTINUOUS
 62
    7
370
    0
100
AcDbLine
 10
1.964146
 20
11.107549
 11
2.472121
 21
9.964629
  0
LINE
  5
E7
100
AcDbEntity
  8
Layer_1
  6
CONTINUOUS
 62
    7
370
    0
100
AcDbLine
 10
2.472121
 20
9.964629
 11
3.064759
 21
8.821699000000001
  0
LINE
  5
E8
100
AcDbEntity
  8
Layer_1
  6
CONTINUOUS
 62
    7
370
    0
100
AcDbLine
 10
3.064759
 20
8.821699000000001
 11
3.784392
 21
7.763429
  0
LINE
  5
E9
100
AcDbEntity
  8
Layer_1
  6
CONTINUOUS
 62
    7
370
    0
100
AcDbLine
 10
3.784392
 20
7.763429
 11
4.588686
 21
6.789829
  0
LINE
  5
EA
100
AcDbEntity
  8
Layer_1
  6
CONTINUOUS
 62
    7
370
    0
100
AcDbLine
 10
4.588686
 20
6.789829
 11
5.519975
 21
5.900879
  0
LINE
  5
EB
100
AcDbEntity
  8
Layer_1
  6
CONTINUOUS
 62
    7
370
    0
100
AcDbLine
 10
5.519975
 20
5.900879
 11
6.493595
 21
5.054269
  0
LINE
  5
EC
100
AcDbEntity
  8
Layer_1
  6
CONTINUOUS
 62
    7
370
    0
100
AcDbLine
 10
6.493595
 20
5.054269
 11
7.509546
 21
4.376979
  0
LINE
  5
ED
100
AcDbEntity
  8
Layer_1
  6
CONTINUOUS
 62
    7
370
    0
100
AcDbLine
 10
7.509546
 20
4.376979
 11
8.61016
 21
3.699689
  0
LINE
  5
EE
100
AcDbEntity
  8
Layer_1
  6
CONTINUOUS
 62
    7
370
    0
100
AcDbLine
 10
8.61016
 20
3.699689
 11
9.795436
 21
3.191719
  0
LINE
  5
EF
100
AcDbEntity
  8
Layer_1
  6
CONTINUOUS
 62
    7
370
    0
100
AcDbLine
 10
9.795436
 20
3.191719
 11
10.938381
 21
2.726089
  0
LINE
  5
F0
100
AcDbEntity
  8
Layer_1
  6
CONTINUOUS
 62
    7
370
    0
100
AcDbLine
 10
10.938381
 20
2.726089
 11
12.20832
 21
2.429769
  0
LINE
  5
F1
100
AcDbEntity
  8
Layer_1
  6
CONTINUOUS
 62
    7
370
    0
100
AcDbLine
 10
12.20832
 20
2.429769
 11
12.800958
 21
2.387469
  0
LINE
  5
F2
100
AcDbEntity
  8
Layer_1
  6
CONTINUOUS
 62
    7
370
    0
100
AcDbLine
 10
93.230425
 20
9.626068999999999
 11
93.86539500000001
 21
9.837719
  0
LINE
  5
F3
100
AcDbEntity
  8
Layer_1
  6
CONTINUOUS
 62
    7
370
    0
100
AcDbLine
 10
93.86539500000001
 20
9.837719
 11
94.754345
 21
10.303359
  0
LINE
  5
F4
100
AcDbEntity
  8
Layer_1
  6
CONTINUOUS
 62
    7
370
    0
100
AcDbLine
 10
94.754345
 20
10.303359
 11
95.60097500000001
 21
10.895989
  0
LINE
  5
F5
100
AcDbEntity
  8
Layer_1
  6
CONTINUOUS
 62
    7
370
    0
100
AcDbLine
 10
95.60097500000001
 20
10.895989
 11
96.36293499999999
 21
11.573279
  0
LINE
  5
F6
100
AcDbEntity
  8
Layer_1
  6
CONTINUOUS
 62
    7
370
    0
100
AcDbLine
 10
96.36293499999999
 20
11.573279
 11
97.040235
 21
12.335229
  0
LINE
  5
F7
100
AcDbEntity
  8
Layer_1
  6
CONTINUOUS
 62
    7
370
    0
100
AcDbLine
 10
97.040235
 20
12.335229
 11
97.632875
 21
13.139509
  0
LINE
  5
F8
100
AcDbEntity
  8
Layer_1
  6
CONTINUOUS
 62
    7
370
    0
100
AcDbLine
 10
97.632875
 20
13.139509
 11
98.140855
 21
14.028459
  0
LINE
  5
F9
100
AcDbEntity
  8
Layer_1
  6
CONTINUOUS
 62
    7
370
    0
100
AcDbLine
 10
98.140855
 20
14.028459
 11
98.521835
 21
14.959729
  0
LINE
  5
FA
100
AcDbEntity
  8
Layer_1
  6
CONTINUOUS
 62
    7
370
    0
100
AcDbLine
 10
98.521835
 20
14.959729
 11
98.775825
 21
15.933339
  0
LINE
  5
FB
100
AcDbEntity
  8
Layer_1
  6
CONTINUOUS
 62
    7
370
    0
100
AcDbLine
 10
98.775825
 20
15.933339
 11
98.987475
 21
16.949269
  0
LINE
  5
FC
100
AcDbEntity
  8
Layer_1
  6
CONTINUOUS
 62
    7
370
    0
100
AcDbLine
 10
98.987475
 20
16.949269
 11
99.029775
 21
17.965209
  0
LINE
  5
FD
100
AcDbEntity
  8
Layer_1
  6
CONTINUOUS
 62
    7
370
   -3
100
AcDbLine
 10
92.89177599999999
 20
52.760904
 11
93.90772800000001
 21
52.422259
  0
LINE
  5
FE
100
AcDbEntity
  8
Layer_1
  6
CONTINUOUS
 62
    7
370
    0
100
AcDbLine
 10
93.90772800000001
 20
52.422259
 11
94.839016
 21
51.956621
  0
LINE
  5
FF
100
AcDbEntity
  8
Layer_1
  6
CONTINUOUS
 62
    7
370
    0
100
AcDbLine
 10
94.839016
 20
51.956621
 11
95.727974
 21
51.406323
  0
LINE
  5
100
100
AcDbEntity
  8
Layer_1
  6
CONTINUOUS
 62
    7
370
    0
100
AcDbLine
 10
95.727974
 20
51.406323
 11
96.61693099999999
 21
50.729033
  0
LINE
  5
101
100
AcDbEntity
  8
Layer_1
  6
CONTINUOUS
 62
    7
370
    0
100
AcDbLine
 10
96.61693099999999
 20
50.729033
 11
97.378894
 21
49.967081
  0
LINE
  5
102
100
AcDbEntity
  8
Layer_1
  6
CONTINUOUS
 62
    7
370
    0
100
AcDbLine
 10
97.378894
 20
49.967081
 11
98.01389500000001
 21
49.162809
  0
LINE
  5
103
100
AcDbEntity
  8
Layer_1
  6
CONTINUOUS
 62
    7
370
    0
100
AcDbLine
 10
98.01389500000001
 20
49.162809
 11
98.648865
 21
48.316189
  0
LINE
  5
104
100
AcDbEntity
  8
Layer_1
  6
CONTINUOUS
 62
    7
370
    0
100
AcDbLine
 10
98.648865
 20
48.316189
 11
99.072175
 21
47.342589
  0
LINE
  5
105
100
AcDbEntity
  8
Layer_1
  6
CONTINUOUS
 62
    7
370
    0
100
AcDbLine
 10
99.072175
 20
47.342589
 11
99.49549500000001
 21
46.368989
  0
LINE
  5
106
100
AcDbEntity
  8
Layer_1
  6
CONTINUOUS
 62
    7
370
    0
100
AcDbLine
 10
99.49549500000001
 20
46.368989
 11
99.749475
 21
45.353049
  0
LINE
  5
107
100
AcDbEntity
  8
Layer_1
  6
CONTINUOUS
 62
    7
370
    0
100
AcDbLine
 10
99.749475
 20
45.353049
 11
99.961135
 21
44.294779
  0
LINE
  5
108
100
AcDbEntity
  8
Layer_1
  6
CONTINUOUS
 62
    7
370
    0
100
AcDbLine
 10
99.961135
 20
44.294779
 11
100.003435
 21
43.236519
  0
LINE
  5
109
100
AcDbEntity
  8
Layer_1
  6
CONTINUOUS
 62
    7
370
    0
100
AcDbLine
 10
100.003435
 20
43.236519
 11
100.003435
 21
17.965119
  0
LINE
  5
10A
100
AcDbEntity
  8
Layer_1
  6
CONTINUOUS
 62
    7
370
    0
100
AcDbLine
 10
100.003435
 20
17.965119
 11
99.961135
 21
16.906859
  0
LINE
  5
10B
100
AcDbEntity
  8
Layer_1
  6
CONTINUOUS
 62
    7
370
    0
100
AcDbLine
 10
99.961135
 20
16.906859
 11
99.749475
 21
15.890919
  0
LINE
  5
10C
100
AcDbEntity
  8
Layer_1
  6
CONTINUOUS
 62
    7
370
    0
100
AcDbLine
 10
99.749475
 20
15.890919
 11
99.49549500000001
 21
14.874979
  0
LINE
  5
10D
100
AcDbEntity
  8
Layer_1
  6
CONTINUOUS
 62
    7
370
    0
100
AcDbLine
 10
99.49549500000001
 20
14.874979
 11
99.072175
 21
13.859049
  0
LINE
  5
10E
100
AcDbEntity
  8
Layer_1
  6
CONTINUOUS
 62
    7
370
    0
100
AcDbLine
 10
99.072175
 20
13.859049
 11
98.648865
 21
12.885439
  0
LINE
  5
10F
100
AcDbEntity
  8
Layer_1
  6
CONTINUOUS
 62
    7
370
    0
100
AcDbLine
 10
98.648865
 20
12.885439
 11
98.01389500000001
 21
12.038829
  0
LINE
  5
110
100
AcDbEntity
  8
Layer_1
  6
CONTINUOUS
 62
    7
370
    0
100
AcDbLine
 10
98.01389500000001
 20
12.038829
 11
97.378925
 21
11.234549
  0
LINE
  5
111
100
AcDbEntity
  8
Layer_1
  6
CONTINUOUS
 62
    7
370
    0
100
AcDbLine
 10
97.378925
 20
11.234549
 11
96.61696499999999
 21
10.472599
  0
LINE
  5
112
100
AcDbEntity
  8
Layer_1
  6
CONTINUOUS
 62
    7
370
    0
100
AcDbLine
 10
96.61696499999999
 20
10.472599
 11
95.728005
 21
9.837638999999999
  0
LINE
  5
113
100
AcDbEntity
  8
Layer_1
  6
CONTINUOUS
 62
    7
370
    0
100
AcDbLine
 10
95.728005
 20
9.837638999999999
 11
94.839045
 21
9.287338999999999
  0
LINE
  5
114
100
AcDbEntity
  8
Layer_1
  6
CONTINUOUS
 62
    7
370
    0
100
AcDbLine
 10
94.839045
 20
9.287338999999999
 11
93.90775499999999
 21
8.779369000000001
  0
LINE
  5
115
100
AcDbEntity
  8
Layer_1
  6
CONTINUOUS
 62
    7
370
    0
100
AcDbLine
 10
93.90775499999999
 20
8.779369000000001
 11
92.89180500000001
 21
8.440728999999999
  0
LINE
  5
116
100
AcDbEntity
  8
0
  6
ByLayer
 62
  256
370
   -1
100
AcDbLine
 10
92.468475
 20
8.313749
 11
92.89180500000001
 21
8.440728999999999
  0
LINE
  5
117
100
AcDbEntity
  8
0
  6
ByLayer
 62
  256
370
   -1
100
AcDbLine
 10
92.172155
 20
9.498969000000001
 11
93.230425
 21
9.626068999999999
  0
LINE
  5
118
100
AcDbEntity
  8
0
  6
ByLayer
 62
  256
370
   -1
100
AcDbLine
 10
12.800958
 20
2.387469
 11
13.986245
 21
2.429789
  0
LINE
  5
119
100
AcDbEntity
  8
0
  6
ByLayer
 62
  256
370
   -1
100
AcDbLine
 10
13.435957
 20
1.244503
 11
13.859251
 21
1.202269
  0
LINE
  5
11A
100
AcDbEntity
  8
0
  6
ByLayer
 62
  256
370
   -1
100
AcDbLine
 10
12.800964
 20
58.814189
 11
13.986244
 21
58.771839
  0
ENDSEC
  0
SECTION
  2
OBJECTS
  0
DICTIONARY
  5
C
330
0
100
AcDbDictionary
281
    1
  3
ACAD_GROUP
350
D
  0
DICTIONARY
  5
D
330
C
100
AcDbDictionary
281
    1
  0
ENDSEC
  0
EOF
